<svg xmlns="http://www.w3.org/2000/svg" xml:space="preserve" style="fill-rule:evenodd;clip-rule:evenodd;stroke-linejoin:round;stroke-miterlimit:2" viewBox="0 0 943 305"><path d="M0 241.997c0-10.985 2.692-20.355 8.077-28.109 5.385-7.755 13.839-14.109 25.363-19.063 11.524-4.954 26.332-8.562 44.425-10.823 18.094-2.262 39.849-3.393 65.265-3.393 25.417 0 47.172 1.131 65.265 3.393 18.093 2.261 32.902 5.869 44.425 10.823 11.524 4.954 19.978 11.308 25.363 19.063 5.385 7.754 8.078 17.124 8.078 28.109 0 10.985-2.693 20.355-8.078 28.109-5.385 7.754-13.839 14.108-25.363 19.062-11.523 4.955-26.332 8.562-44.425 10.824-18.093 2.262-39.848 3.393-65.265 3.393-25.416 0-47.171-1.131-65.265-3.393-18.093-2.262-32.901-5.869-44.425-10.824-11.524-4.954-19.978-11.308-25.363-19.062C2.692 262.352 0 252.982 0 241.997Zm189.333 5.492c5.169 0 7.754-1.938 7.754-5.815 0-3.662-2.585-5.493-7.754-5.493h-71.404c-4.308 0-7.916-.377-10.824-1.131-2.907-.754-6.408-1.777-10.5-3.069-2.154-.646-3.931-.485-5.331.485-1.4.969-2.1 2.423-2.1 4.361 0 2.8 1.4 4.739 4.2 5.816 5.385 1.939 9.747 3.231 13.085 3.877 3.339.646 7.701.969 13.085.969h69.789ZM3.231 58.157c0-36.617 18.309-54.926 54.926-54.926h71.08c36.618 0 54.926 18.309 54.926 54.926v54.603c0 11.631-1.508 21.324-4.523 29.078-3.016 7.754-8.077 14.054-15.186 18.901-7.108 4.846-16.423 8.293-27.947 10.339-11.524 2.046-25.794 3.069-42.81 3.069-17.016 0-31.286-1.023-42.81-3.069-11.523-2.046-20.839-5.493-27.947-10.339-7.108-4.847-12.17-11.147-15.186-18.901-3.015-7.754-4.523-17.447-4.523-29.078V58.157Zm96.928 10.985c0-5.385-2.154-8.077-6.462-8.077s-6.462 2.692-6.462 8.077v22.94c0 6.892.969 11.739 2.908 14.539 1.939 2.8 5.816 5.277 11.631 7.431l9.047 3.231c2.369.861 4.362.808 5.977-.162 1.616-.969 2.316-2.423 2.1-4.361-.215-2.585-1.4-4.308-3.554-5.17l-9.046-3.231c-4.093-1.508-6.139-4.954-6.139-10.339V69.142Zm169.947 43.941c-2.154-1.508-4.146-1.939-5.977-1.293-1.831.646-2.747 1.939-2.747 3.877 0 1.724 1.077 3.339 3.231 4.847l10.339 6.785c3.016 2.154 5.116 4.308 6.301 6.462 1.184 2.154 1.777 5.277 1.777 9.369v3.231c0 9.908-3.662 17.501-10.986 22.778-7.323 5.277-17.985 7.916-31.986 7.916-14 0-24.663-2.639-31.986-7.916-7.323-5.277-10.985-12.87-10.985-22.778V30.694c0-9.908 3.662-17.501 10.985-22.778C215.395 2.639 226.058 0 240.058 0c14.001 0 24.663 2.639 31.986 7.916 7.324 5.277 10.986 12.87 10.986 22.778v16.478c2.369-.431 4.415-.808 6.138-1.131a28.017 28.017 0 0 1 5.17-.485c8.4 0 14.216 2.8 17.447 8.401 3.231 5.6 4.846 15.508 4.846 29.724 0 25.632-8.185 38.448-24.555 38.448-5.385 0-11.416-2.154-18.093-6.462l-3.877-2.584Zm202.579-56.542c0 7.97-.7 15.94-2.1 23.909-1.4 7.97-3.177 16.155-5.331 24.555a17.168 17.168 0 0 1 3.554-.969c1.293-.215 2.8-.323 4.524-.323 1.507 0 3.177.161 5.008.485 1.83.323 3.93.7 6.3 1.13V29.725C484.64 9.908 495.625 0 517.595 0c21.971 0 32.956 9.908 32.956 29.725v243.612c0 19.816-10.985 29.724-32.956 29.724-21.97 0-32.955-9.908-32.955-29.724v-67.85c0-4.738.7-8.562 2.1-11.47 1.4-2.907 3.931-5.546 7.593-7.915l8.723-5.816c2.154-1.508 3.231-3.231 3.231-5.169.215-2.37-.646-3.931-2.585-4.685-1.938-.754-3.984-.485-6.138.807l-3.878 2.585c-6.246 4.308-12.277 6.462-18.093 6.462-13.139 0-21.001-8.077-23.586-24.232l-28.109 108.559c-1.938 7.755-4.361 14.216-7.269 19.386-2.908 5.169-6.354 9.316-10.339 12.439-3.985 3.123-8.724 5.331-14.216 6.623-5.493 1.293-11.793 1.939-18.901 1.939-6.893 0-12.493-.915-16.801-2.746-4.308-1.831-7.431-4.524-9.37-8.078-1.938-3.554-2.854-7.969-2.746-13.246.108-5.278 1.023-11.255 2.746-17.932l37.156-144.1c1.077-4.523 2.423-7.7 4.039-9.531 1.615-1.831 3.93-3.285 6.946-4.362l21.97-8.723c3.447-1.293 5.17-3.554 5.17-6.785 0-2.37-.862-3.985-2.585-4.847-1.723-.861-3.769-.753-6.139.324l-17.124 6.784c-5.385 2.154-10.662 3.231-15.831 3.231h-7.754c-28.863 0-43.295-15.293-43.295-45.879S343.987 3.231 372.85 3.231h38.448c11.2 0 20.731.862 28.593 2.585 7.862 1.723 14.217 4.577 19.063 8.562 4.846 3.984 8.346 9.423 10.5 16.316 2.154 6.893 3.231 15.508 3.231 25.847Zm87.236-26.816C559.921 9.908 570.906 0 592.876 0s32.956 9.908 32.956 29.725v243.612c0 19.816-10.986 29.724-32.956 29.724-21.97 0-32.955-9.908-32.955-29.724V29.725Zm95.958 21.97c0-8.831.862-16.316 2.585-22.455 1.723-6.139 4.523-11.147 8.4-15.024 3.878-3.877 8.885-6.677 15.024-8.4 6.139-1.723 13.624-2.585 22.455-2.585h92.082c15.077 0 26.116 3.392 33.117 10.177 7 6.785 10.5 18.147 10.5 34.087 0 15.939-3.5 27.301-10.5 34.086-7.001 6.785-18.04 10.177-33.117 10.177h-38.448c-4.954 0-8.347.916-10.178 2.747-1.831 1.831-2.746 5.223-2.746 10.177v88.528c0 3.446-1.723 4.631-5.17 3.554l-7.108-2.262c-2.584-.861-4.684-.861-6.3 0-1.615.862-2.423 2.477-2.423 4.847 0 3.23 1.615 5.384 4.846 6.461l10.016 3.554c3.447 1.293 8.293 1.939 14.539 1.939h46.203c15.077 0 26.116 3.392 33.117 10.177 7 6.785 10.5 18.147 10.5 34.087 0 15.939-3.5 27.301-10.5 34.086-7.001 6.785-18.04 10.178-33.117 10.178h-95.313c-8.831 0-16.316-.862-22.455-2.585-6.139-1.723-11.146-4.524-15.024-8.401-3.877-3.877-6.677-8.885-8.4-15.024-1.723-6.138-2.585-13.623-2.585-22.454V51.695Zm154.439 139.576c-14.216 0-24.825-3.285-31.825-9.854-7-6.57-10.5-16.963-10.5-31.179 0-14.216 3.5-24.609 10.5-31.178 7-6.57 17.609-9.854 31.825-9.854h43.94V42.002c0-14.647 3.447-25.309 10.339-31.986C871.49 3.339 882.691 0 898.199 0c15.078 0 26.171 3.392 33.279 10.177 7.108 6.785 10.662 17.394 10.662 31.825v219.057c0 14.432-3.554 25.04-10.662 31.825-7.108 6.785-18.201 10.177-33.279 10.177-15.508 0-26.709-3.338-33.602-10.015-6.892-6.678-10.339-17.34-10.339-31.987v-44.587c0-4.738.701-8.562 2.101-11.469 1.4-2.908 3.931-5.547 7.592-7.916l8.724-5.816c2.154-1.508 3.231-3.231 3.231-5.169 0-2.37-.916-3.931-2.747-4.685-1.83-.754-3.823-.485-5.977.808l-3.877 2.584c-6.677 4.308-12.708 6.462-18.093 6.462h-34.894Z" style="fill:#44403c"/></svg>