<?xml version="1.0" encoding="UTF-8" standalone="no"?>
<!DOCTYPE svg PUBLIC "-//W3C//DTD SVG 1.1//EN" "http://www.w3.org/Graphics/SVG/1.1/DTD/svg11.dtd">
<svg width="100%" height="100%" viewBox="0 0 1487 305" version="1.1" xmlns="http://www.w3.org/2000/svg" xmlns:xlink="http://www.w3.org/1999/xlink" xml:space="preserve" xmlns:serif="http://www.serif.com/" style="fill-rule:evenodd;clip-rule:evenodd;stroke-linejoin:round;stroke-miterlimit:2;">
    <path d="M0,241.997C0,231.012 2.692,221.642 8.077,213.888C13.462,206.133 21.916,199.779 33.44,194.825C44.964,189.871 59.772,186.263 77.865,184.002C95.959,181.74 117.714,180.609 143.13,180.609C168.547,180.609 190.302,181.74 208.395,184.002C226.488,186.263 241.297,189.871 252.82,194.825C264.344,199.779 272.798,206.133 278.183,213.888C283.568,221.642 286.261,231.012 286.261,241.997C286.261,252.982 283.568,262.352 278.183,270.106C272.798,277.86 264.344,284.214 252.82,289.168C241.297,294.123 226.488,297.73 208.395,299.992C190.302,302.254 168.547,303.385 143.13,303.385C117.714,303.385 95.959,302.254 77.865,299.992C59.772,297.73 44.964,294.123 33.44,289.168C21.916,284.214 13.462,277.86 8.077,270.106C2.692,262.352 0,252.982 0,241.997ZM189.333,247.489C194.502,247.489 197.087,245.551 197.087,241.674C197.087,238.012 194.502,236.181 189.333,236.181L117.929,236.181C113.621,236.181 110.013,235.804 107.105,235.05C104.198,234.296 100.697,233.273 96.605,231.981C94.451,231.335 92.674,231.496 91.274,232.466C89.874,233.435 89.174,234.889 89.174,236.827C89.174,239.627 90.574,241.566 93.374,242.643C98.759,244.582 103.121,245.874 106.459,246.52C109.798,247.166 114.16,247.489 119.544,247.489L189.333,247.489ZM3.231,58.157C3.231,21.54 21.54,3.231 58.157,3.231L129.237,3.231C165.855,3.231 184.163,21.54 184.163,58.157L184.163,112.76C184.163,124.391 182.655,134.084 179.64,141.838C176.624,149.592 171.563,155.892 164.454,160.739C157.346,165.585 148.031,169.032 136.507,171.078C124.983,173.124 110.713,174.147 93.697,174.147C76.681,174.147 62.411,173.124 50.887,171.078C39.364,169.032 30.048,165.585 22.94,160.739C15.832,155.892 10.77,149.592 7.754,141.838C4.739,134.084 3.231,124.391 3.231,112.76L3.231,58.157ZM100.159,69.142C100.159,63.757 98.005,61.065 93.697,61.065C89.389,61.065 87.235,63.757 87.235,69.142L87.235,92.082C87.235,98.974 88.204,103.821 90.143,106.621C92.082,109.421 95.959,111.898 101.774,114.052L110.821,117.283C113.19,118.144 115.183,118.091 116.798,117.121C118.414,116.152 119.114,114.698 118.898,112.76C118.683,110.175 117.498,108.452 115.344,107.59L106.298,104.359C102.205,102.851 100.159,99.405 100.159,94.02L100.159,69.142ZM270.106,113.083C267.952,111.575 265.96,111.144 264.129,111.79C262.298,112.436 261.382,113.729 261.382,115.667C261.382,117.391 262.459,119.006 264.613,120.514L274.952,127.299C277.968,129.453 280.068,131.607 281.253,133.761C282.437,135.915 283.03,139.038 283.03,143.13L283.03,146.361C283.03,156.269 279.368,163.862 272.044,169.139C264.721,174.416 254.059,177.055 240.058,177.055C226.058,177.055 215.395,174.416 208.072,169.139C200.749,163.862 197.087,156.269 197.087,146.361L197.087,30.694C197.087,20.786 200.749,13.193 208.072,7.916C215.395,2.639 226.058,0 240.058,0C254.059,0 264.721,2.639 272.044,7.916C279.368,13.193 283.03,20.786 283.03,30.694L283.03,47.172C285.399,46.741 287.445,46.364 289.168,46.041C290.892,45.718 292.615,45.556 294.338,45.556C302.738,45.556 308.554,48.356 311.785,53.957C315.016,59.557 316.631,69.465 316.631,83.681C316.631,109.313 308.446,122.129 292.076,122.129C286.691,122.129 280.66,119.975 273.983,115.667L270.106,113.083ZM472.685,56.541C472.685,64.511 471.985,72.481 470.585,80.45C469.185,88.42 467.408,96.605 465.254,105.005C466.331,104.575 467.516,104.251 468.808,104.036C470.101,103.821 471.608,103.713 473.332,103.713C474.839,103.713 476.509,103.874 478.34,104.198C480.17,104.521 482.27,104.898 484.64,105.328L484.64,29.725C484.64,9.908 495.625,0 517.595,0C539.566,0 550.551,9.908 550.551,29.725L550.551,273.337C550.551,293.153 539.566,303.061 517.595,303.061C495.625,303.061 484.64,293.153 484.64,273.337L484.64,205.487C484.64,200.749 485.34,196.925 486.74,194.017C488.14,191.11 490.671,188.471 494.333,186.102L503.056,180.286C505.21,178.778 506.287,177.055 506.287,175.117C506.502,172.747 505.641,171.186 503.702,170.432C501.764,169.678 499.718,169.947 497.564,171.239L493.686,173.824C487.44,178.132 481.409,180.286 475.593,180.286C462.454,180.286 454.592,172.209 452.007,156.054L423.898,264.613C421.96,272.368 419.537,278.829 416.629,283.999C413.721,289.168 410.275,293.315 406.29,296.438C402.305,299.561 397.566,301.769 392.074,303.061C386.581,304.354 380.281,305 373.173,305C366.28,305 360.68,304.085 356.372,302.254C352.064,300.423 348.941,297.73 347.002,294.176C345.064,290.622 344.148,286.207 344.256,280.93C344.364,275.652 345.279,269.675 347.002,262.998L384.158,118.898C385.235,114.375 386.581,111.198 388.197,109.367C389.812,107.536 392.127,106.082 395.143,105.005L417.113,96.282C420.56,94.989 422.283,92.728 422.283,89.497C422.283,87.127 421.421,85.512 419.698,84.65C417.975,83.789 415.929,83.897 413.559,84.974L396.435,91.758C391.05,93.912 385.773,94.989 380.604,94.989L372.85,94.989C343.987,94.989 329.555,79.696 329.555,49.11C329.555,18.524 343.987,3.231 372.85,3.231L411.298,3.231C422.498,3.231 432.029,4.093 439.891,5.816C447.753,7.539 454.108,10.393 458.954,14.378C463.8,18.362 467.3,23.801 469.454,30.694C471.608,37.587 472.685,46.202 472.685,56.541ZM559.921,29.725C559.921,9.908 570.906,0 592.876,0C614.846,0 625.832,9.908 625.832,29.725L625.832,273.337C625.832,293.153 614.846,303.061 592.876,303.061C570.906,303.061 559.921,293.153 559.921,273.337L559.921,29.725ZM655.879,51.695C655.879,42.864 656.741,35.379 658.464,29.24C660.187,23.101 662.987,18.093 666.864,14.216C670.742,10.339 675.749,7.539 681.888,5.816C688.027,4.093 695.512,3.231 704.343,3.231L796.425,3.231C811.502,3.231 822.541,6.623 829.542,13.408C836.542,20.193 840.042,31.555 840.042,47.495C840.042,63.434 836.542,74.796 829.542,81.581C822.541,88.366 811.502,91.758 796.425,91.758L757.977,91.758C753.023,91.758 749.63,92.674 747.799,94.505C745.968,96.336 745.053,99.728 745.053,104.682L745.053,193.21C745.053,196.656 743.33,197.841 739.883,196.764L732.775,194.502C730.191,193.641 728.091,193.641 726.475,194.502C724.86,195.364 724.052,196.979 724.052,199.349C724.052,202.579 725.667,204.733 728.898,205.81L738.914,209.364C742.361,210.657 747.207,211.303 753.453,211.303L799.656,211.303C814.733,211.303 825.772,214.695 832.773,221.48C839.773,228.265 843.273,239.627 843.273,255.567C843.273,271.506 839.773,282.868 832.773,289.653C825.772,296.438 814.733,299.831 799.656,299.831L704.343,299.831C695.512,299.831 688.027,298.969 681.888,297.246C675.749,295.523 670.742,292.722 666.864,288.845C662.987,284.968 660.187,279.96 658.464,273.821C656.741,267.683 655.879,260.198 655.879,251.367L655.879,51.695ZM810.318,191.271C796.102,191.271 785.493,187.986 778.493,181.417C771.493,174.847 767.993,164.454 767.993,150.238C767.993,136.022 771.493,125.629 778.493,119.06C785.493,112.49 796.102,109.206 810.318,109.206L854.258,109.206L854.258,42.002C854.258,27.355 857.705,16.693 864.597,10.016C871.49,3.339 882.691,0 898.199,0C913.277,0 924.37,3.392 931.478,10.177C938.586,16.962 942.14,27.571 942.14,42.002L942.14,261.059C942.14,275.491 938.586,286.099 931.478,292.884C924.37,299.669 913.277,303.061 898.199,303.061C882.691,303.061 871.49,299.723 864.597,293.046C857.705,286.368 854.258,275.706 854.258,261.059L854.258,216.472C854.258,211.734 854.959,207.91 856.359,205.003C857.759,202.095 860.29,199.456 863.951,197.087L872.675,191.271C874.829,189.763 875.906,188.04 875.906,186.102C875.906,183.732 874.99,182.171 873.159,181.417C871.329,180.663 869.336,180.932 867.182,182.225L863.305,184.809C856.628,189.117 850.597,191.271 845.212,191.271L810.318,191.271Z" style="fill:rgb(68,64,60);"/>
</svg>
