<?xml version="1.0" encoding="UTF-8" standalone="no"?>
<!DOCTYPE svg PUBLIC "-//W3C//DTD SVG 1.1//EN" "http://www.w3.org/Graphics/SVG/1.1/DTD/svg11.dtd">
<svg width="100%" height="100%" viewBox="0 0 1487 305" version="1.1" xmlns="http://www.w3.org/2000/svg" xmlns:xlink="http://www.w3.org/1999/xlink" xml:space="preserve" xmlns:serif="http://www.serif.com/" style="fill-rule:evenodd;clip-rule:evenodd;stroke-linejoin:round;stroke-miterlimit:2;">
    <g transform="matrix(1,0,0,1,-216.573,-387.791)">
        <path d="M274.856,692.209L250.786,692.209L250.902,691.061C251.017,689.93 251.01,689.907 250.437,689.486C250.118,689.251 249.577,688.623 249.236,688.09C248.895,687.558 248.124,686.138 247.521,684.936C246.918,683.734 246.128,682.012 245.765,681.11C245.402,680.208 244.949,679.299 244.757,679.09C244.566,678.881 244.235,678.362 244.022,677.936C243.808,677.511 243.634,677.042 243.634,676.894C243.634,676.747 243.84,676.38 244.093,676.08C244.345,675.78 244.552,675.445 244.552,675.336C244.552,675.227 243.811,674.64 242.906,674.031C242.001,673.422 241.174,672.924 241.069,672.924C240.964,672.924 240.879,673.002 240.879,673.097C240.879,673.192 240.403,673.635 239.823,674.08C239.242,674.525 238.147,675.264 237.389,675.721C236.631,676.178 235.237,676.94 234.289,677.415C233.01,678.056 232.514,678.224 232.361,678.07C232.218,677.926 232.155,676.313 232.155,672.849L232.155,667.836L230.961,666.811C230.304,666.248 229.327,665.284 228.79,664.67C228.253,664.055 227.289,662.77 226.649,661.812C226.009,660.855 225.106,659.297 224.642,658.349C224.178,657.401 223.798,656.544 223.798,656.445C223.798,656.345 223.149,656.21 222.355,656.143C221.561,656.077 220.485,655.896 219.964,655.742C219.443,655.587 218.735,655.294 218.391,655.091C218.047,654.888 217.567,654.458 217.323,654.135C217.079,653.812 216.788,653.279 216.675,652.951C216.508,652.462 216.536,652.166 216.834,651.299C217.034,650.718 217.392,649.953 217.63,649.599C217.868,649.246 218.339,648.679 218.675,648.341C219.012,648.002 219.62,647.499 220.027,647.223C220.434,646.946 221.222,646.504 221.778,646.24C222.333,645.975 223.139,645.653 223.568,645.522C223.998,645.392 224.349,645.186 224.349,645.065C224.349,644.944 224.257,644.789 224.145,644.72C224.025,644.645 223.983,644.336 224.042,643.97C224.112,643.539 224.408,643.099 225.002,642.547C225.474,642.107 226.546,641.365 227.385,640.898C228.225,640.431 228.999,640.049 229.107,640.049C229.215,640.049 229.603,639.449 229.97,638.717C230.337,637.985 231.076,636.711 231.611,635.887C232.455,634.587 232.612,634.198 232.795,632.949C232.912,632.156 233.303,630.616 233.665,629.526L234.323,627.544L235.633,626.49C236.354,625.91 237.62,624.959 238.447,624.377C239.273,623.794 239.992,623.249 240.044,623.165C240.096,623.081 239.898,622.155 239.604,621.107C239.31,620.06 238.904,618.583 238.7,617.825C238.497,617.068 237.952,615.047 237.49,613.334C237.027,611.621 236.524,609.803 236.372,609.293C236.219,608.784 235.683,606.838 235.18,604.969C234.677,603.1 234.173,601.241 234.06,600.837C233.947,600.433 233.738,599.689 233.596,599.184C233.454,598.679 233.263,598.017 233.171,597.714C233.078,597.411 232.869,596.626 232.706,595.97C232.542,595.313 232.329,594.528 232.233,594.225C232.137,593.922 231.733,592.475 231.334,591.011C230.935,589.546 230.354,587.397 230.042,586.235C229.73,585.074 229.345,583.669 229.188,583.113C229.03,582.558 228.835,581.855 228.754,581.552C228.672,581.249 228.428,580.343 228.209,579.538C227.843,578.189 227.729,577.996 226.732,577.058C226.085,576.451 225.484,575.673 225.235,575.124C224.897,574.374 224.808,573.796 224.75,571.978C224.705,570.555 224.754,569.611 224.885,569.367C224.999,569.153 225.393,568.909 225.775,568.814C226.153,568.721 227.577,568.421 228.941,568.147C230.304,567.872 231.668,567.58 231.971,567.496C232.274,567.412 232.951,567.29 233.475,567.223L234.428,567.103L235.198,568.098C235.622,568.646 236.122,569.5 236.311,569.997C236.526,570.562 236.654,571.375 236.654,572.169C236.654,572.867 236.518,573.872 236.351,574.401C236.106,575.177 236.085,575.536 236.241,576.254C236.347,576.744 236.722,578.219 237.073,579.532C237.424,580.845 238.135,583.531 238.654,585.501C239.172,587.471 239.793,589.826 240.033,590.735C240.274,591.644 240.735,593.38 241.058,594.592C241.381,595.804 241.808,597.416 242.007,598.174C242.205,598.931 242.659,600.667 243.014,602.03C243.37,603.394 243.868,605.295 244.12,606.255C244.373,607.214 244.747,608.619 244.951,609.377C245.155,610.135 245.513,611.498 245.746,612.407C245.98,613.317 246.433,615.051 246.755,616.262C247.076,617.472 247.38,618.531 247.432,618.613C247.483,618.696 247.62,618.739 247.737,618.708C247.854,618.677 251.338,616.387 255.48,613.619C259.621,610.852 263.071,608.496 263.145,608.385C263.219,608.274 263.281,607.749 263.283,607.219C263.285,606.3 263.308,606.255 263.769,606.255C264.035,606.255 265.006,605.897 265.927,605.459C266.848,605.021 268.593,604.056 269.805,603.314C271.018,602.571 273.29,601.12 274.856,600.088C276.422,599.057 278.777,597.476 280.091,596.576C281.404,595.676 283.883,593.944 285.6,592.728C287.318,591.513 289.756,589.776 291.018,588.87C292.281,587.964 294.719,586.198 296.437,584.947C298.154,583.696 301.584,581.175 304.059,579.347C306.533,577.518 309.661,575.2 311.008,574.195C312.355,573.191 314.21,571.79 315.128,571.083C316.642,569.918 316.82,569.715 317.019,568.936C317.14,568.463 317.424,567.776 317.65,567.409C317.876,567.043 318.372,566.548 318.752,566.308C319.131,566.068 319.916,565.805 320.495,565.723L321.548,565.573L322.561,563.829C323.119,562.869 323.781,561.712 324.034,561.257C324.286,560.803 325.01,559.563 325.641,558.502C326.273,557.442 327.676,555.045 328.759,553.176L330.728,549.778L330.884,547.299C330.969,545.935 331.118,544.324 331.214,543.718C331.31,543.111 331.446,542.368 331.517,542.065C331.587,541.762 331.838,540.92 332.074,540.195C332.31,539.469 332.642,538.602 332.812,538.266C332.981,537.931 333.286,537.475 333.489,537.253C333.692,537.031 334.082,536.8 334.357,536.74C334.68,536.669 334.989,536.391 335.234,535.95C335.442,535.575 335.706,534.938 335.821,534.534C335.936,534.13 336.15,533.097 336.295,532.239C336.441,531.38 336.562,530.577 336.564,530.454C336.566,530.332 336.319,529.949 336.016,529.604C335.713,529.258 335.465,528.769 335.465,528.516C335.465,528.263 335.676,527.406 335.934,526.612C336.192,525.818 337.016,523.928 337.765,522.413C338.514,520.897 339.29,519.396 339.488,519.075C339.687,518.755 340.036,518.465 340.263,518.432C340.499,518.398 341.097,517.877 341.652,517.222C342.33,516.423 342.628,515.914 342.628,515.552C342.628,515.266 342.788,514.567 342.983,513.999C343.179,513.431 344.058,511.552 344.938,509.824L346.538,506.682L346.682,504.262C346.761,502.931 346.85,500.644 346.88,499.179L346.935,496.516L345.774,492.935C345.135,490.965 344.213,488.114 343.724,486.598C343.235,485.083 342.691,483.348 342.514,482.742C342.338,482.135 342.098,481.532 341.98,481.399C341.806,481.203 341.17,481.264 338.478,481.735C336.669,482.051 334.931,482.354 334.616,482.408C334.059,482.504 334.036,482.481 333.833,481.614C333.719,481.123 333.545,480.308 333.446,479.803C333.348,479.298 333.07,477.952 332.828,476.812C332.428,474.925 332.416,474.726 332.687,474.581C332.851,474.494 337.366,473.336 342.72,472.007C348.073,470.679 353.321,469.379 354.382,469.119C355.443,468.86 356.462,468.568 356.646,468.471C356.86,468.36 356.94,468.184 356.866,467.989C356.802,467.82 356.568,467.415 356.346,467.089C356.125,466.763 355.695,466.374 355.392,466.224C355.018,466.038 353.69,465.884 351.26,465.743C349.29,465.628 346.439,465.472 344.923,465.396C343.408,465.32 341.921,465.328 341.619,465.414C341.316,465.499 340.926,465.569 340.751,465.569C340.576,465.569 340.307,465.325 340.153,465.027C339.961,464.656 339.876,463.977 339.884,462.869C339.89,461.98 339.972,460.84 340.065,460.335C340.159,459.83 340.29,458.983 340.356,458.452C340.453,457.668 340.424,457.488 340.202,457.488C340.052,457.488 339.783,457.326 339.604,457.128C339.425,456.93 339.239,456.414 339.19,455.98C339.142,455.547 339.234,454.684 339.396,454.064C339.557,453.443 339.689,452.844 339.689,452.732C339.689,452.62 339.528,452.529 339.33,452.529C339.133,452.529 338.61,452.162 338.168,451.714C337.727,451.266 337.094,450.391 336.763,449.769L336.16,448.639L336.709,448.058C337.011,447.739 337.342,447.313 337.445,447.111C337.548,446.909 337.685,446.372 337.75,445.917C337.848,445.227 337.776,444.899 337.309,443.926C336.812,442.89 336.753,442.587 336.769,441.171C336.779,440.297 336.846,439.374 336.918,439.122C337.039,438.694 337.116,438.666 338.053,438.721C338.75,438.761 339.396,438.656 340.154,438.378C340.863,438.118 341.564,437.676 342.137,437.126C342.625,436.658 343.184,436.054 343.379,435.784L343.734,435.294L343.07,433.971C342.705,433.243 342.005,431.482 341.516,430.056C341.026,428.631 340.547,427.439 340.451,427.407C340.356,427.375 340.029,427.787 339.726,428.322C339.423,428.858 338.824,430.264 338.394,431.448C337.965,432.631 337.543,433.556 337.458,433.503C337.372,433.45 337.302,432.812 337.303,432.086C337.304,431.359 337.424,429.897 337.57,428.837C337.716,427.776 337.914,426.454 338.011,425.898C338.107,425.342 338.317,424.268 338.478,423.51C338.638,422.753 338.898,421.554 339.055,420.847C339.212,420.14 339.391,419.28 339.452,418.936C339.542,418.43 339.513,418.34 339.305,418.464C339.162,418.548 338.716,418.883 338.312,419.208C337.908,419.533 336.916,420.137 336.108,420.552C335.3,420.966 334.475,421.306 334.275,421.306C334.006,421.306 334.349,420.86 335.58,419.608C336.498,418.673 337.708,417.324 338.267,416.61C338.827,415.895 339.831,414.468 340.497,413.437C341.164,412.407 341.709,411.522 341.709,411.472C341.709,411.422 341.908,411.066 342.151,410.681C342.394,410.296 342.94,409.301 343.364,408.469C343.788,407.637 344.087,406.909 344.029,406.852C343.971,406.794 343.547,406.852 343.087,406.981C342.51,407.142 341.609,407.181 340.189,407.106C338.989,407.042 337.399,406.814 336.384,406.56C335.424,406.32 334.763,406.081 334.914,406.029C335.066,405.977 335.685,405.972 336.291,406.018C336.897,406.065 338.295,405.968 339.397,405.803C340.499,405.639 342.129,405.26 343.019,404.962C343.91,404.664 345.128,404.172 345.727,403.87C346.326,403.568 347.299,402.897 347.89,402.379C348.481,401.861 349.625,401.003 350.433,400.473C351.241,399.942 352.523,399.175 353.28,398.767C354.038,398.36 355.424,397.722 356.361,397.35C357.297,396.978 358.744,396.465 359.575,396.21C360.406,395.955 361.582,395.624 362.188,395.475C362.794,395.326 363.703,395.123 364.208,395.024C364.713,394.924 365.788,394.726 366.596,394.584C367.404,394.441 369.677,394.193 371.646,394.032C373.616,393.871 376.115,393.758 377.2,393.781C378.285,393.804 379.213,393.782 379.261,393.733C379.31,393.685 379.072,393.382 378.732,393.061C378.392,392.741 377.901,392.115 377.64,391.671C377.38,391.227 376.957,390.218 376.699,389.429C376.441,388.64 376.259,387.91 376.293,387.806C376.327,387.703 376.704,388.133 377.131,388.761C377.557,389.388 378.524,390.429 379.279,391.074C380.035,391.719 381.209,392.537 381.889,392.894C382.569,393.25 383.604,393.709 384.188,393.913C384.773,394.118 386.05,394.38 387.026,394.497C388.003,394.614 389.508,394.908 390.372,395.151C391.235,395.394 392.867,396.054 393.998,396.617C395.13,397.181 396.708,398.128 397.506,398.721C398.303,399.315 399.631,400.473 400.456,401.296C401.282,402.118 402.483,403.465 403.124,404.289C403.766,405.113 404.828,406.613 405.483,407.624C406.138,408.634 406.934,409.942 407.253,410.531C407.571,411.12 408.233,412.525 408.723,413.653C409.214,414.782 409.868,416.45 410.177,417.361C410.487,418.273 410.921,419.884 411.141,420.943C411.443,422.39 411.566,423.767 411.637,426.49C411.71,429.301 411.662,430.619 411.421,432.368C411.25,433.607 411.041,434.87 410.957,435.173C410.873,435.476 410.664,436.344 410.493,437.101C410.321,437.859 409.89,439.388 409.535,440.499C409.179,441.61 408.549,443.346 408.135,444.356C407.721,445.366 407.153,446.647 406.873,447.203C406.593,447.758 406.362,448.13 406.361,448.029C406.359,447.928 406.482,447.147 406.633,446.292C406.786,445.423 406.836,444.668 406.748,444.58C406.659,444.491 406.421,444.636 406.206,444.909C405.995,445.177 405.649,445.86 405.437,446.427C405.225,446.994 404.818,448.371 404.532,449.488C404.247,450.605 403.885,452.097 403.728,452.805C403.571,453.512 403.316,454.793 403.16,455.651C403.005,456.51 402.855,457.413 402.827,457.657C402.8,457.902 402.685,458.132 402.573,458.169C402.46,458.206 402.28,458.006 402.171,457.724C402.063,457.443 401.886,456.775 401.779,456.239C401.671,455.704 401.583,454.691 401.583,453.989C401.583,453.178 401.509,452.713 401.38,452.713C401.268,452.713 400.656,453.127 400.019,453.634C399.383,454.14 398.255,455.199 397.514,455.988C396.772,456.776 395.742,458.035 395.225,458.786C394.708,459.537 393.991,460.73 393.632,461.437C393.272,462.144 392.853,463.012 392.699,463.365C392.545,463.719 392.242,464.545 392.025,465.202C391.809,465.858 391.565,466.514 391.484,466.66C391.396,466.818 391.29,466.305 391.22,465.374C391.156,464.522 391.172,463.225 391.257,462.493C391.342,461.76 391.349,461.06 391.273,460.936C391.172,460.773 391.001,460.836 390.649,461.166C390.382,461.416 389.848,462.282 389.461,463.09C389.075,463.898 388.612,465.035 388.433,465.617C388.22,466.311 388.17,466.738 388.288,466.857C388.387,466.956 389.25,467.086 390.205,467.147C391.659,467.239 392.537,467.449 395.614,468.443C397.635,469.095 399.363,469.704 399.455,469.796C399.548,469.888 399.613,470.243 399.6,470.584C399.587,470.925 399.358,471.816 399.091,472.565C398.824,473.313 397.834,475.496 396.891,477.415C395.948,479.335 394.609,481.938 393.915,483.201C393.221,484.463 392.351,486.038 391.981,486.699L391.308,487.901L392.578,489.217C393.276,489.941 394.626,491.467 395.577,492.61C396.528,493.752 397.432,494.933 397.588,495.234C397.743,495.535 398.037,496.36 398.242,497.067C398.447,497.774 398.749,499.097 398.912,500.006C399.076,500.915 399.29,502.113 399.388,502.669C399.486,503.225 399.653,504.382 399.758,505.24C399.863,506.099 400.028,507.545 400.123,508.454C400.218,509.363 400.463,512.215 400.667,514.791C401,518.99 401.088,519.588 401.523,520.576C401.79,521.182 402.326,522.365 402.714,523.204C403.102,524.044 403.42,524.931 403.42,525.177C403.42,525.423 402.945,526.72 402.365,528.059L401.31,530.494L401.343,543.35C401.362,550.421 401.463,560.463 401.57,565.665C401.703,572.174 401.849,575.697 402.037,576.961C402.188,577.971 402.399,579.706 402.506,580.817C402.613,581.929 402.779,583.788 402.875,584.95C402.971,586.112 403.177,588.674 403.333,590.643C403.489,592.613 403.693,595.341 403.785,596.704C403.877,598.068 404.038,600.423 404.143,601.939C404.247,603.454 404.418,605.975 404.523,607.54C404.628,609.106 404.796,611.503 404.895,612.867C404.995,614.23 405.162,616.834 405.267,618.652C405.371,620.47 405.531,623.115 405.621,624.529C405.711,625.943 405.871,628.629 405.976,630.498C406.082,632.367 406.252,635.218 406.354,636.835C406.456,638.451 406.625,641.096 406.728,642.712C406.832,644.328 406.999,647.179 407.099,649.048C407.2,650.917 407.363,653.975 407.461,655.844C407.559,657.712 407.685,659.564 407.74,659.957C407.796,660.351 408.045,660.915 408.294,661.211C408.552,661.519 408.746,661.983 408.746,662.295C408.746,662.595 408.631,663.064 408.489,663.337C408.348,663.61 408.059,663.991 407.847,664.183C407.634,664.375 407.461,664.617 407.461,664.719C407.461,664.822 407.576,665.037 407.718,665.196C407.859,665.355 408.142,666.032 408.347,666.7C408.551,667.368 408.841,668.649 408.992,669.547C409.143,670.445 409.356,671.923 409.466,672.832C409.576,673.742 409.785,676.345 409.931,678.618C410.077,680.891 410.22,684.608 410.249,686.879L410.301,691.008L411.355,692.209L286.599,692.209L287.304,691.245C287.692,690.714 288.563,689.311 289.239,688.127C289.916,686.942 291.92,683.071 293.693,679.524C295.465,675.978 296.886,672.988 296.851,672.881C296.815,672.774 296.126,673.298 295.32,674.045C294.514,674.792 292.96,676.229 291.865,677.238C290.77,678.246 289.714,679.185 289.516,679.323C289.319,679.461 289.124,679.539 289.082,679.497C289.04,679.455 288.881,678.186 288.728,676.678C288.575,675.169 288.368,673.149 288.268,672.19C288.168,671.23 287.957,669.122 287.798,667.506C287.64,665.89 287.432,663.914 287.336,663.115C287.24,662.316 287.161,661.343 287.161,660.952L287.161,660.241L289.32,659.216C290.506,658.652 291.973,657.962 292.58,657.683C293.186,657.405 294.219,656.927 294.875,656.622C295.532,656.317 297.102,655.578 298.365,654.98C299.628,654.381 301.442,653.525 302.397,653.077C303.352,652.629 304.798,651.932 305.611,651.528C307.089,650.793 307.089,650.793 307.833,649.324C308.242,648.516 308.723,647.441 308.903,646.936C309.083,646.431 309.3,645.852 309.387,645.65C309.473,645.448 309.803,644.539 310.12,643.63C310.437,642.721 310.768,641.77 310.856,641.518C310.944,641.265 311.523,639.447 312.141,637.477C312.76,635.508 313.458,633.276 313.691,632.518C313.925,631.761 314.262,630.645 314.44,630.039C314.617,629.433 314.91,628.441 315.09,627.835C315.27,627.229 315.596,626.113 315.814,625.356C316.033,624.598 316.368,623.441 316.559,622.784C316.75,622.128 317.111,620.888 317.361,620.029C317.611,619.171 318.364,616.485 319.034,614.06C319.703,611.636 320.497,608.743 320.797,607.632C321.096,606.521 321.533,604.909 321.767,604.051C322.001,603.192 322.539,601.179 322.962,599.577C323.385,597.975 323.687,596.62 323.633,596.565C323.578,596.511 323.25,596.664 322.903,596.907C322.556,597.149 321.046,598.224 319.548,599.295C318.049,600.367 315.418,602.195 313.701,603.357C311.983,604.52 308.843,606.647 306.722,608.084C304.6,609.521 300.93,611.98 298.565,613.548C296.2,615.117 290.125,619.143 285.065,622.495C280.006,625.848 275.765,628.652 275.64,628.726C275.516,628.801 275.227,628.766 274.998,628.649C274.768,628.532 274.216,628.053 273.769,627.585C273.323,627.116 272.53,626.155 272.007,625.447C271.485,624.74 270.598,623.449 270.036,622.577C269.475,621.705 268.934,620.942 268.835,620.88C268.735,620.819 268.376,620.861 268.036,620.975C267.696,621.089 267.005,621.489 266.499,621.865C265.919,622.296 265.328,622.979 264.892,623.718C264.236,624.833 264.204,624.965 264.204,626.519C264.204,627.416 264.073,628.657 263.913,629.278C263.753,629.899 263.416,630.82 263.165,631.325C262.914,631.83 262.507,632.454 262.262,632.712C262.017,632.97 261.816,633.239 261.816,633.309C261.816,633.379 262.258,633.437 262.799,633.437C263.339,633.437 264.036,633.526 264.348,633.634C264.659,633.743 265.028,634.011 265.167,634.231C265.305,634.451 265.554,635.003 265.719,635.457C265.884,635.912 266.149,637.151 266.308,638.212C266.467,639.273 266.616,640.782 266.64,641.565C266.682,642.949 266.667,643.003 266.132,643.437C265.829,643.682 264.92,644.124 264.112,644.42C263.304,644.715 262.229,645.046 261.724,645.155C261.219,645.264 260.062,645.453 259.153,645.575C258.244,645.697 257.426,645.862 257.336,645.943C257.245,646.024 257.415,646.293 257.717,646.547C258.017,646.8 258.359,647.331 258.478,647.727C258.597,648.124 258.694,648.786 258.694,649.2C258.694,649.614 258.533,650.642 258.337,651.484C258.14,652.327 257.846,653.409 257.683,653.888C257.404,654.711 257.409,654.872 257.773,656.725C257.985,657.806 258.284,659.228 258.437,659.884C258.59,660.541 258.832,661.564 258.974,662.159C259.116,662.753 259.269,663.275 259.313,663.319C259.357,663.363 259.726,663.23 260.132,663.022C260.539,662.815 261.373,662.227 261.987,661.717C262.6,661.207 263.481,660.399 263.944,659.923C264.407,659.447 265.181,658.479 265.663,657.772C266.145,657.065 266.747,656.073 267,655.568C267.253,655.063 267.631,654.154 267.838,653.548C268.046,652.942 268.32,651.962 268.447,651.37L268.679,650.294L269.344,650.384C269.71,650.433 270.748,650.698 271.652,650.974C272.556,651.249 274.245,651.758 275.407,652.105C276.569,652.452 277.974,652.867 278.529,653.027C279.085,653.188 279.598,653.372 279.67,653.436C279.742,653.5 279.602,654.102 279.358,654.773C279.114,655.444 278.862,656.6 278.798,657.342C278.733,658.084 278.768,659.222 278.875,659.871C278.983,660.521 279.321,661.556 279.627,662.171C279.932,662.785 280.561,663.721 281.023,664.25L281.864,665.21L280.702,665.205C280.062,665.202 278.506,665.123 277.244,665.03C275.981,664.937 274.272,664.804 273.447,664.735L271.945,664.609L271.733,665.396C271.617,665.829 271.321,666.636 271.077,667.189C270.832,667.742 270.632,668.292 270.632,668.411C270.632,668.53 271.129,668.995 271.737,669.444C272.752,670.195 272.832,670.305 272.731,670.812C272.67,671.115 272.578,673.057 272.526,675.128C272.473,677.259 272.526,680.16 272.647,681.812C272.791,683.757 272.945,684.814 273.109,684.978C273.244,685.113 273.529,685.746 273.741,686.385C273.954,687.024 274.292,688.391 274.492,689.425C274.692,690.458 274.856,691.507 274.856,691.756L274.856,692.209ZM1331.26,641.138C1330.26,640.146 1329.99,640.146 1329.09,641.138C1327.47,642.942 1325.57,645.378 1321.87,645.378L1319.89,645.378L1319.89,609.473L1306.36,609.473L1306.36,611.277L1313.85,611.277L1313.85,653.227C1310.69,659.091 1291.38,661.888 1271.08,664.594L1271.08,626.072L1299.86,626.072C1300.22,625.08 1300.22,624.899 1299.23,624.087L1294.72,620.389C1293.46,619.306 1293.19,619.306 1292.1,620.389C1290.48,622.012 1288.22,624.268 1282.63,624.268L1258.18,624.268L1258.18,626.072L1264.77,626.072L1264.77,668.473L1271.53,667.391C1292.19,664.053 1311.05,661.256 1313.85,656.655L1313.85,692.2L1317,691.568C1319.08,691.117 1319.89,689.854 1319.89,686.516L1319.89,647.183L1335.95,647.183C1336.4,646.461 1336.4,646.28 1335.59,645.468L1331.26,641.138ZM1050.69,641.138C1049.69,640.146 1049.42,640.146 1048.52,641.138C1046.9,642.942 1045,645.378 1041.3,645.378L1039.32,645.378L1039.32,609.473L1025.79,609.473L1025.79,611.277L1033.28,611.277L1033.28,692.2L1036.43,691.568C1038.51,691.117 1039.32,689.854 1039.32,686.516L1039.32,647.183L1055.38,647.183C1055.83,646.461 1055.83,646.28 1055.02,645.468L1050.69,641.138ZM1611.83,641.138C1610.83,640.146 1610.56,640.146 1609.66,641.138C1608.04,642.942 1606.14,645.378 1602.44,645.378L1600.46,645.378L1600.46,609.473L1586.93,609.473L1586.93,611.277L1594.41,611.277L1594.41,692.2L1597.57,691.568C1599.65,691.117 1600.46,689.854 1600.46,686.516L1600.46,647.183L1616.52,647.183C1616.97,646.461 1616.97,646.28 1616.16,645.468L1611.83,641.138ZM851.04,660.174C841.297,660.174 831.554,665.677 831.554,676.051C831.554,686.426 841.297,691.929 851.04,691.929C860.784,691.929 870.527,686.426 870.527,676.051C870.527,665.677 860.784,660.174 851.04,660.174ZM1390.17,660.534C1380.42,660.534 1370.68,665.947 1370.68,676.232C1370.68,686.516 1380.42,691.929 1390.17,691.929C1399.91,691.929 1409.65,686.516 1409.65,676.232C1409.65,665.947 1399.91,660.534 1390.17,660.534ZM936.384,660.534C926.641,660.534 916.897,665.947 916.897,676.232C916.897,686.516 926.641,691.929 936.384,691.929C946.127,691.929 955.871,686.516 955.871,676.232C955.871,665.947 946.127,660.534 936.384,660.534ZM1687.07,663.692C1684.36,663.692 1680.3,664.684 1673.71,664.684L1639.16,664.684L1639.16,666.489L1645.75,666.489L1645.75,690.396C1647.82,690.305 1650.26,689.674 1651.79,688.501L1689.95,688.501L1689.95,686.697L1685.26,686.697C1686.43,685.885 1687.07,684.351 1687.07,681.735L1687.07,663.692ZM1495.18,682.637C1493.91,681.555 1493.64,681.555 1492.56,682.637C1490.94,684.261 1488.68,686.516 1483.09,686.516L1457.02,686.516L1457.02,667.752L1444.03,667.752L1444.03,669.556L1450.61,669.556L1450.61,690.215C1452.78,690.125 1455.48,689.494 1457.02,688.321L1500.32,688.321C1500.77,687.328 1500.59,687.058 1499.69,686.336L1495.18,682.637ZM936.384,689.945C927.814,689.945 922.942,683.449 922.942,676.232C922.942,669.015 927.814,662.519 936.384,662.519C944.954,662.519 949.826,669.015 949.826,676.232C949.826,683.449 944.954,689.945 936.384,689.945ZM1390.17,689.945C1381.6,689.945 1376.73,683.449 1376.73,676.232C1376.73,669.015 1381.6,662.519 1390.17,662.519C1398.74,662.519 1403.61,669.015 1403.61,676.232C1403.61,683.449 1398.74,689.945 1390.17,689.945ZM851.04,689.945C842.47,689.945 837.598,683.359 837.598,676.051C837.598,668.744 842.47,662.158 851.04,662.158C859.611,662.158 864.482,668.744 864.482,676.051C864.482,683.359 859.611,689.945 851.04,689.945ZM1681.02,666.489L1681.02,686.697L1651.79,686.697L1651.79,666.489L1681.02,666.489ZM1222.1,671.18C1220.83,670.187 1220.56,670.097 1219.48,671.18C1217.67,672.984 1215.51,675.6 1210.19,675.6L1190.52,675.6L1190.52,652.595L1214.88,652.595C1215.33,651.603 1215.15,651.332 1214.25,650.611L1209.74,646.912C1208.47,645.829 1208.2,645.829 1207.12,646.912C1205.5,648.536 1203.24,650.791 1197.65,650.791L1169.59,650.791L1169.59,622.824L1213.43,622.824C1213.89,621.832 1213.71,621.561 1212.8,620.84L1208.29,617.141C1207.03,616.058 1206.76,616.058 1205.68,617.141C1204.05,618.765 1201.8,621.02 1196.2,621.02L1155.79,621.02L1155.79,622.824L1162.82,622.824L1162.82,654.49C1165.08,654.4 1167.97,653.858 1169.59,652.595L1184.12,652.595L1184.12,675.6L1162.01,675.6C1156.33,675.6 1151.01,675.33 1146.13,674.788C1145.68,675.6 1145.86,675.781 1146.4,676.142L1153.89,680.833C1155.25,681.645 1155.43,681.735 1156.51,680.833C1158.13,679.48 1160.66,677.495 1166.07,677.495L1228.5,677.495C1228.95,676.593 1228.68,676.503 1227.87,675.781L1222.1,671.18ZM1135.49,670.639C1134.23,669.646 1133.96,669.556 1132.87,670.639C1131.07,672.443 1128.9,675.059 1123.58,675.059L1098.77,675.059L1098.77,644.927L1086.5,644.927L1086.5,646.641L1092.37,646.641L1092.37,675.059L1075.41,675.059C1069.72,675.059 1064.4,674.788 1059.53,674.247C1059.08,675.149 1059.26,675.33 1059.8,675.691L1067.29,680.382C1068.64,681.194 1068.82,681.284 1069.9,680.382C1071.53,679.029 1074.05,677.044 1079.47,677.044L1141.89,677.044C1142.35,676.142 1142.08,675.961 1141.26,675.24L1135.49,670.639ZM1504.47,637.53C1503.48,636.537 1503.21,636.537 1502.31,637.53C1500.68,639.334 1498.79,641.77 1495.09,641.77L1493.1,641.77L1493.1,609.473L1479.57,609.473L1479.57,611.277L1487.06,611.277L1487.06,674.428L1490.22,673.796C1492.29,673.345 1493.1,672.082 1493.1,668.744L1493.1,643.574L1509.16,643.574C1509.61,642.852 1509.61,642.672 1508.8,641.86L1504.47,637.53ZM1582.14,655.753C1582.06,654.219 1581.88,654.039 1580.43,653.949C1577.9,653.768 1573.66,654.4 1569.42,649.799L1562.57,642.491C1565.73,637.078 1568.52,630.944 1570.96,623.997L1558.15,618.945L1557.52,620.659L1563.65,623.185C1556.88,644.657 1545.97,659.722 1534.15,669.917L1534.96,670.909C1544.89,664.865 1554,656.475 1561.49,644.386L1568.61,652.144C1574.12,658.279 1577.73,662.339 1581.88,667.481C1582.87,667.21 1582.96,667.12 1582.87,665.677L1582.14,655.753ZM1000.71,639.334C992.408,639.334 983.747,644.837 983.747,654.851C983.747,664.865 992.408,670.368 1000.71,670.368C1009.01,670.368 1017.67,664.865 1017.67,654.851C1017.67,644.837 1009.01,639.334 1000.71,639.334ZM1000.71,668.383C993.671,668.383 989.701,662.249 989.701,654.851C989.701,647.453 993.671,641.319 1000.71,641.319C1007.74,641.319 1011.71,647.453 1011.71,654.851C1011.71,662.249 1007.74,668.383 1000.71,668.383ZM250.309,664.877C250.394,664.835 250.424,664.624 250.375,664.408C250.327,664.193 249.731,662.405 249.052,660.435L247.818,656.854L246.47,655.443C245.729,654.667 244.953,653.699 244.746,653.292C244.538,652.885 244.367,652.363 244.365,652.132C244.364,651.9 244.293,651.602 244.208,651.467C244.085,651.274 243.85,651.264 243.063,651.417C242.518,651.524 241.246,651.815 240.236,652.063C239.226,652.312 237.701,652.713 236.848,652.956C235.995,653.198 235.267,653.486 235.23,653.596C235.194,653.706 235.344,654.153 235.565,654.59C235.785,655.027 236.399,656.046 236.928,656.854C237.457,657.662 238.355,658.831 238.924,659.453C239.493,660.074 240.519,660.998 241.204,661.506C241.889,662.014 242.984,662.717 243.638,663.07C244.292,663.422 245.365,663.891 246.021,664.112C246.678,664.333 247.876,664.613 248.684,664.734C249.492,664.855 250.223,664.92 250.309,664.877ZM1471.18,647.453C1471.18,638.612 1462.61,633.74 1454.31,633.74C1446.1,633.74 1437.53,638.612 1437.53,647.453C1437.53,656.294 1446.1,661.166 1454.31,661.166C1462.61,661.166 1471.18,656.294 1471.18,647.453ZM920.326,644.566C926.731,649.889 930.7,653.588 935.482,658.008C936.384,657.648 936.474,657.557 936.204,656.114L934.129,646.461C933.858,644.927 933.678,644.747 932.234,644.927C929.618,645.378 924.746,645.468 919.875,641.499L916.356,638.522C918.882,635.184 921.228,631.575 923.303,627.516L913.108,622.824L937.827,622.824C938.188,621.922 938.188,621.742 937.106,620.84L932.595,617.141C931.242,616.058 931.061,616.058 929.979,617.141C928.445,618.675 926.551,621.02 921.95,621.02L905.801,621.02C900.569,621.02 895.246,620.749 890.374,620.208C890.013,621.471 890.013,621.652 890.825,622.103L897.14,625.711C898.584,626.523 898.764,626.523 899.757,625.711C901.2,624.539 903.185,622.824 908.237,622.824L908.868,622.824L914.823,625.982C916.086,626.613 916.266,626.794 915.364,628.779C910.673,639.244 899.666,651.423 887.758,659.813L888.48,660.805C898.494,655.753 907.605,649.258 915.003,640.236L920.326,644.566ZM1374.11,644.566C1380.51,649.889 1384.48,653.588 1389.27,658.008C1390.17,657.648 1390.26,657.557 1389.99,656.114L1387.91,646.461C1387.64,644.927 1387.46,644.747 1386.02,644.927C1383.4,645.378 1378.53,645.468 1373.66,641.499L1370.14,638.522C1372.66,635.184 1375.01,631.575 1377.09,627.516L1366.89,622.824L1391.61,622.824C1391.97,621.922 1391.97,621.742 1390.89,620.84L1386.38,617.141C1385.03,616.058 1384.84,616.058 1383.76,617.141C1382.23,618.675 1380.33,621.02 1375.73,621.02L1359.58,621.02C1354.35,621.02 1349.03,620.749 1344.16,620.208C1343.8,621.471 1343.8,621.652 1344.61,622.103L1350.92,625.711C1352.37,626.523 1352.55,626.523 1353.54,625.711C1354.98,624.539 1356.97,622.824 1362.02,622.824L1362.65,622.824L1368.61,625.982C1369.87,626.613 1370.05,626.794 1369.15,628.779C1364.46,639.244 1353.45,651.423 1341.54,659.813L1342.26,660.805C1352.28,655.753 1361.39,649.258 1368.79,640.236L1374.11,644.566ZM1076.04,625.35C1077.39,626.162 1077.57,626.162 1078.56,625.35C1080.01,624.178 1081.54,622.464 1086.95,622.464L1120.15,622.464L1118.89,645.198C1118.35,652.956 1117.63,658.099 1116.45,660.715C1121.69,660.715 1123.94,657.016 1124.93,645.559L1127.1,619.486C1124.3,619.486 1119.7,620.659 1113.03,620.659L1085.33,620.659C1079.65,620.659 1074.32,620.389 1069.45,619.847C1069.09,620.749 1069.09,620.93 1069.72,621.381L1076.04,625.35ZM1698.43,632.568C1697.44,631.575 1697.17,631.575 1696.27,632.568C1694.64,634.372 1692.75,636.808 1689.05,636.808L1687.07,636.808L1687.07,609.473L1673.53,609.473L1673.53,611.277L1681.02,611.277L1681.02,642.852C1678.04,649.709 1659.28,651.242 1637.36,653.949L1637.36,637.259L1667.13,637.259L1667.13,635.364L1662.35,635.364C1663.7,634.372 1664.42,632.387 1664.42,629.681L1664.42,617.772C1662.44,617.772 1658.38,618.945 1651.61,618.945L1642.14,618.945C1636.91,618.945 1631.58,618.675 1626.71,618.133C1626.35,619.126 1626.35,619.396 1626.98,619.757L1633.48,623.727C1634.92,624.629 1635.01,624.539 1636.09,623.636C1637.54,622.464 1639.52,620.749 1644.57,620.749L1658.11,620.749L1658.11,635.364L1625,635.364L1625,637.259L1631.04,637.259L1631.04,658.099L1640.88,656.565C1660.36,653.588 1678.95,651.242 1681.02,646.461L1681.02,660.444L1684.18,659.813C1686.25,659.362 1687.07,658.099 1687.07,654.761L1687.07,638.612L1703.12,638.612C1703.58,637.89 1703.58,637.71 1702.76,636.898L1698.43,632.568ZM859.881,611.277L866.467,611.277L866.467,634.282L854.378,634.282L854.378,613.622L842.47,613.622L842.47,615.427L848.514,615.427L848.514,641.589C844.003,646.551 830.652,648.355 816.939,650.16L816.939,622.193L804.489,622.193L804.489,623.997L811.075,623.997L811.075,654.58L819.014,653.227C832.275,651.062 844.455,648.716 848.514,645.108L848.514,656.745L851.491,656.024C853.566,655.573 854.378,654.31 854.378,650.34L854.378,636.357L866.467,636.357L866.467,659.903L869.444,659.271C871.519,658.82 872.331,657.557 872.331,654.219L872.331,609.473L859.881,609.473L859.881,611.277ZM1396.84,611.277L1404.33,611.277L1404.33,633.019L1393.87,633.289C1390.53,633.38 1386.2,633.199 1383.13,632.838C1382.86,633.47 1382.86,633.74 1383.58,634.192L1389.17,637.8C1390.17,638.432 1390.35,638.341 1391.07,637.8C1392.6,636.627 1394.41,635.184 1397.57,635.094L1404.33,634.913L1404.33,659.271L1407.49,658.64C1409.56,658.189 1410.38,656.926 1410.38,653.588L1410.38,609.473L1396.84,609.473L1396.84,611.277ZM943.06,611.277L950.548,611.277L950.548,633.019L940.083,633.289C936.745,633.38 932.415,633.199 929.347,632.838C929.077,633.47 929.077,633.74 929.798,634.192L935.392,637.8C936.384,638.432 936.564,638.341 937.286,637.8C938.82,636.627 940.624,635.184 943.782,635.094L950.548,634.913L950.548,659.271L953.705,658.64C955.78,658.189 956.592,656.926 956.592,653.588L956.592,609.473L943.06,609.473L943.06,611.277ZM1443.48,647.453C1443.48,641.048 1447.36,635.725 1454.31,635.725C1461.35,635.725 1465.23,641.048 1465.23,647.453C1465.23,653.858 1461.35,659.181 1454.31,659.181C1447.36,659.181 1443.48,653.858 1443.48,647.453ZM521.599,652.068C521.691,652.12 713.218,652.12 713.311,652.068L772.737,650.836L713.311,649.604C713.218,649.553 521.691,649.553 521.599,649.604L462.173,650.836L521.599,652.068ZM234.643,641.693C234.891,641.688 235.382,641.543 235.736,641.371C236.203,641.143 236.395,640.919 236.437,640.553C236.469,640.276 236.442,640.049 236.376,640.049C236.311,640.049 235.871,640.354 235.4,640.728C234.928,641.102 234.464,641.474 234.368,641.555C234.272,641.635 234.396,641.698 234.643,641.693ZM1020.47,626.523C1019.11,625.441 1018.93,625.441 1017.85,626.523C1016.32,628.057 1014.42,630.402 1009.82,630.402L988.168,630.402C982.935,630.402 977.612,630.132 972.741,629.591C972.38,630.854 972.38,631.034 973.192,631.485L979.507,635.094C980.95,635.906 981.131,635.906 982.123,635.094C983.567,633.921 985.551,632.207 990.603,632.207L1025.7,632.207C1026.06,631.305 1026.06,631.124 1024.97,630.222L1020.47,626.523ZM1479.12,628.508C1479.48,627.606 1479.48,627.425 1478.4,626.523L1473.89,622.824C1472.53,621.742 1472.35,621.742 1471.27,622.824C1469.74,624.358 1467.84,626.704 1463.24,626.704L1442.13,626.704C1436.9,626.704 1431.58,626.433 1426.7,625.892C1426.34,627.155 1426.34,627.335 1427.15,627.786L1433.47,631.395C1434.91,632.207 1435.09,632.207 1436.09,631.395C1437.53,630.222 1439.52,628.508 1444.57,628.508L1479.12,628.508ZM992.498,622.734C993.49,623.546 993.671,623.546 994.844,622.734C996.287,621.742 998.181,620.208 1002.51,620.208L1010.18,620.208L1010.18,618.404L1002.42,618.404C997.37,618.404 991.506,617.772 986.544,616.69C986.093,617.592 986.093,617.863 986.814,618.404L992.498,622.734ZM1446.19,620.659C1447.18,621.471 1447.36,621.471 1448.54,620.659C1449.98,619.667 1451.87,618.133 1456.2,618.133L1463.69,618.133L1463.69,616.329L1456.12,616.329C1451.06,616.329 1445.2,615.697 1440.24,614.615C1439.79,615.517 1439.79,615.788 1440.51,616.329L1446.19,620.659ZM932.14,514.613C918.869,514.613 906.44,513.981 895.065,512.717C894.222,514.824 894.222,515.245 895.697,516.298L910.443,525.567C913.602,527.463 914.024,527.463 916.341,525.567C919.711,522.829 923.292,518.826 935.932,518.826L1004.82,518.826L1004.82,581.812L1012.61,580.337C1018.3,579.073 1019.56,576.335 1019.56,566.855L1019.56,511.875C1012.61,511.875 1001.02,514.613 984.171,514.613L932.14,514.613ZM1687.96,493.337C1685.01,491.02 1684.38,490.809 1681.85,493.337C1677.64,497.55 1672.59,503.659 1660.16,503.659L1547.67,503.659C1534.4,503.659 1521.97,503.027 1510.59,501.763C1509.54,503.659 1509.96,504.081 1511.23,504.923L1528.71,515.877C1531.87,517.773 1532.29,517.984 1534.82,515.877C1538.61,512.717 1544.51,508.083 1557.15,508.083L1600.12,508.083L1600.12,581.601L1607.49,580.126C1613.6,578.862 1615.08,575.703 1615.08,567.066L1615.08,508.083L1702.92,508.083C1703.97,505.976 1703.34,505.766 1701.44,504.081L1687.96,493.337ZM1489.95,461.739C1487.63,459.422 1487,459.422 1484.89,461.739C1481.1,465.952 1476.68,471.64 1468.04,471.64L1463.41,471.64L1463.41,387.8L1431.81,387.8L1431.81,392.013L1449.29,392.013L1449.29,580.969L1456.67,579.494C1461.51,578.441 1463.41,575.492 1463.41,567.698L1463.41,475.853L1500.9,475.853C1501.96,474.168 1501.96,473.746 1500.06,471.851L1489.95,461.739ZM570.87,506.187C548.119,506.187 525.369,519.037 525.369,543.262C525.369,567.487 548.119,580.337 570.87,580.337C593.62,580.337 616.371,567.487 616.371,543.262C616.371,519.037 593.62,506.187 570.87,506.187ZM819.651,560.325C816.702,557.797 816.07,557.797 813.542,560.325C809.75,564.117 804.484,569.383 791.424,569.383L729.913,569.383L729.913,545.158L823.654,545.158L823.654,540.945L812.278,540.945C815.649,539.26 817.334,535.678 817.334,529.359L817.334,509.768C812.7,509.768 803.22,512.507 787.421,512.507L735.39,512.507C723.172,512.507 710.743,511.875 699.368,510.611C698.526,512.928 698.526,513.56 700,514.403L715.167,523.671C718.538,525.778 718.748,525.567 721.276,523.461C724.647,520.722 729.281,516.72 741.078,516.72L802.167,516.72L802.167,540.945L701.475,540.945L701.475,545.158L714.746,545.158L714.746,578.02C719.591,577.809 726.753,576.124 729.913,573.596L831.658,573.596C832.712,571.279 832.29,570.647 830.184,568.962L819.651,560.325ZM1224.74,558.218C1221.79,555.691 1221.16,555.691 1218.63,558.218C1214.84,562.01 1209.57,567.276 1196.51,567.276L1134.58,567.276L1134.58,516.72L1104.24,516.72L1104.24,520.933L1119.62,520.933L1119.62,575.913C1124.68,575.703 1131,574.228 1134.58,571.49L1236.74,571.49C1237.8,569.172 1237.38,568.54 1235.27,566.855L1224.74,558.218ZM570.87,575.703C550.858,575.703 539.482,560.325 539.482,543.262C539.482,526.199 550.858,510.821 570.87,510.821C590.882,510.821 602.257,526.199 602.257,543.262C602.257,560.325 590.882,575.703 570.87,575.703ZM1214.2,534.204C1219.05,533.151 1220.94,530.202 1220.94,522.407L1220.94,387.8L1189.35,387.8L1189.35,392.013L1206.83,392.013L1206.83,535.678L1214.2,534.204ZM1373.25,457.526C1353.87,457.526 1333.64,470.376 1333.64,493.759C1333.64,517.141 1353.87,529.991 1373.25,529.991C1392.63,529.991 1412.85,517.141 1412.85,493.759C1412.85,470.376 1392.63,457.526 1373.25,457.526ZM1373.25,525.356C1356.82,525.356 1347.55,511.032 1347.55,493.759C1347.55,476.485 1356.82,462.161 1373.25,462.161C1389.68,462.161 1398.95,476.485 1398.95,493.759C1398.95,511.032 1389.68,525.356 1373.25,525.356ZM934.878,469.744C949.835,482.173 959.104,490.809 970.268,501.131C972.375,500.289 972.585,500.078 971.953,496.708L967.108,474.168C966.476,470.587 966.055,470.165 962.685,470.587C956.576,471.64 945.2,471.851 933.825,462.582L925.61,455.63C931.508,447.836 936.985,439.41 941.83,429.931L918.026,418.977L975.745,418.977C976.588,416.87 976.588,416.449 974.06,414.342L963.527,405.706C960.367,403.178 959.946,403.178 957.418,405.706C953.837,409.287 949.413,414.764 938.67,414.764L900.963,414.764C888.745,414.764 876.317,414.132 864.942,412.868C864.099,415.817 864.099,416.238 865.995,417.291L880.741,425.718C884.111,427.613 884.532,427.613 886.849,425.718C890.22,422.979 894.854,418.977 906.651,418.977L908.125,418.977L922.029,426.35C924.978,427.824 925.399,428.245 923.292,432.88C912.339,457.316 886.639,485.754 858.833,505.344L860.518,507.662C883.9,495.865 905.176,480.698 922.45,459.633L934.878,469.744ZM591.514,392.013L606.891,392.013L606.891,445.73L578.664,445.73L578.664,397.49L550.858,397.49L550.858,401.703L564.972,401.703L564.972,462.793C554.439,474.378 523.262,478.591 491.243,482.805L491.243,417.502L462.173,417.502L462.173,421.715L477.55,421.715L477.55,493.127L496.088,489.967C527.054,484.911 555.492,479.434 564.972,471.008L564.972,498.182L571.923,496.497C576.768,495.444 578.664,492.495 578.664,483.226L578.664,450.575L606.891,450.575L606.891,505.555L613.843,504.081C618.688,503.027 620.584,500.078 620.584,492.284L620.584,387.8L591.514,387.8L591.514,392.013ZM987.963,392.013L1005.45,392.013L1005.45,442.78L981.011,443.412C973.217,443.623 963.106,443.202 955.944,442.359C955.312,443.834 955.312,444.466 956.997,445.519L970.057,453.945C972.375,455.42 972.796,455.209 974.481,453.945C978.062,451.207 982.275,447.836 989.648,447.625L1005.45,447.204L1005.45,504.712L1012.82,503.238C1017.67,502.185 1019.56,499.236 1019.56,491.441L1019.56,387.8L987.963,387.8L987.963,392.013ZM781.944,442.991C776.257,442.991 763.617,442.78 756.455,441.938C755.613,443.834 755.613,444.255 757.298,445.308L768.462,452.26C770.78,453.734 771.201,453.734 772.886,452.26C776.257,449.311 779.416,447.204 786.368,447.204L803.22,447.204L803.22,474.8L785.104,474.8C779.416,474.8 766.777,474.589 759.615,473.746C758.772,475.642 758.772,476.064 760.458,477.117L771.622,484.068C773.939,485.543 774.361,485.543 776.046,484.068C779.416,481.119 782.576,479.013 789.528,479.013L803.22,479.013L803.22,502.395L810.593,500.921C815.438,499.867 817.334,496.918 817.334,489.124L817.334,387.8L785.736,387.8L785.736,392.013L803.22,392.013L803.22,442.991L781.944,442.991ZM757.508,467.638C757.508,448.047 737.707,437.303 718.748,437.303C700,437.303 680.199,448.047 680.199,467.638C680.199,487.228 700,497.972 718.748,497.972C737.707,497.972 757.508,487.228 757.508,467.638ZM694.102,467.638C694.102,453.524 702.949,441.938 718.748,441.938C734.547,441.938 743.605,453.524 743.605,467.638C743.605,481.751 734.547,493.337 718.748,493.337C702.949,493.337 694.102,481.751 694.102,467.638ZM1167.02,452.049C1167.02,426.771 1143.85,412.446 1121.52,412.446C1099.19,412.446 1076.02,426.771 1076.02,452.049C1076.02,477.328 1099.19,491.652 1121.52,491.652C1143.85,491.652 1167.02,477.328 1167.02,452.049ZM1090.55,452.049C1090.55,433.301 1101.51,417.081 1121.52,417.081C1141.53,417.081 1152.48,433.301 1152.48,452.049C1152.48,470.797 1141.53,487.018 1121.52,487.018C1101.51,487.018 1090.55,470.797 1090.55,452.049ZM1549.99,481.541C1555.25,481.541 1562.84,479.855 1566.42,477.117L1673.64,477.117C1674.69,474.8 1674.27,474.168 1672.16,472.483L1661.63,463.846C1658.68,461.318 1658.05,461.318 1655.52,463.846C1651.73,467.638 1646.47,472.904 1633.4,472.904L1566.42,472.904L1566.42,441.938L1666.27,441.938L1666.27,437.725L1654.05,437.725C1657.84,435.618 1659.95,430.984 1659.95,424.243L1659.95,399.807C1654.89,399.807 1640.78,402.546 1623.29,402.546L1574.84,402.546C1562.62,402.546 1550.2,401.914 1538.82,400.65C1537.98,402.967 1537.98,403.599 1539.45,404.442L1554.62,413.71C1557.99,415.817 1558.2,415.606 1560.73,413.5C1564.1,410.761 1568.73,406.759 1580.53,406.759L1643.52,406.759L1643.52,437.725L1536.71,437.725L1536.71,441.938L1549.99,441.938L1549.99,481.541ZM1419.38,427.613C1416.22,425.086 1415.8,425.086 1413.27,427.613C1409.69,431.195 1405.27,436.672 1394.52,436.672L1343.97,436.672C1331.75,436.672 1319.32,436.04 1307.94,434.776C1307.1,437.725 1307.1,438.146 1309,439.199L1323.74,447.625C1327.12,449.521 1327.54,449.521 1329.85,447.625C1333.22,444.887 1337.86,440.885 1349.65,440.885L1431.6,440.885C1432.44,438.778 1432.44,438.357 1429.91,436.25L1419.38,427.613ZM776.678,425.928C777.521,423.822 777.521,423.4 774.993,421.294L764.46,412.657C761.3,410.129 760.879,410.129 758.351,412.657C754.77,416.238 750.346,421.715 739.603,421.715L690.31,421.715C678.092,421.715 665.664,421.083 654.288,419.819C653.446,422.768 653.446,423.19 655.342,424.243L670.087,432.669C673.458,434.565 673.879,434.565 676.196,432.669C679.567,429.931 684.201,425.928 695.998,425.928L776.678,425.928ZM1354.08,418.766C1356.39,420.662 1356.82,420.662 1359.56,418.766C1362.93,416.449 1367.35,412.868 1377.46,412.868L1395.37,412.868L1395.37,408.655L1377.25,408.655C1365.45,408.655 1351.76,407.18 1340.17,404.652C1339.12,406.759 1339.12,407.391 1340.81,408.655L1354.08,418.766ZM700.211,409.708C702.528,411.604 702.949,411.604 705.688,409.708C709.058,407.391 713.482,403.81 723.593,403.81L740.024,403.81L740.024,399.597L723.383,399.597C711.586,399.597 697.894,398.122 686.308,395.594C685.254,397.701 685.254,398.333 686.94,399.597L700.211,409.708Z" style="fill:white;fill-rule:nonzero;"/>
    </g>
</svg>
