<svg clip-rule="evenodd" fill-rule="evenodd" stroke-linejoin="round" stroke-miterlimit="2" viewBox="0 0 1487 305" xmlns="http://www.w3.org/2000/svg"><path d="m262.821 692.209h-12.035l.116-1.148c.115-1.131.108-1.154-.465-1.575-.319-.235-.86-.863-1.201-1.396-.341-.532-1.112-1.952-1.715-3.154s-1.393-2.924-1.756-3.826-.816-1.811-1.008-2.02c-.191-.209-.522-.728-.735-1.154-.214-.425-.388-.894-.388-1.042 0-.147.206-.514.459-.814.252-.3.459-.635.459-.744s-.741-.696-1.646-1.305-1.732-1.107-1.837-1.107-.19.078-.19.173-.476.538-1.056.983c-.581.445-1.676 1.184-2.434 1.641s-2.152 1.219-3.1 1.694c-1.279.641-1.775.809-1.928.655-.143-.144-.206-1.757-.206-5.221v-5.013l-1.194-1.025c-.657-.563-1.634-1.527-2.171-2.141-.537-.615-1.501-1.9-2.141-2.858-.64-.957-1.543-2.515-2.007-3.463s-.844-1.805-.844-1.904c0-.1-.649-.235-1.443-.302-.794-.066-1.87-.247-2.391-.401-.521-.155-1.229-.448-1.573-.651s-.824-.633-1.068-.956-.535-.856-.648-1.184c-.167-.489-.139-.785.159-1.652.2-.581.558-1.346.796-1.7.238-.353.709-.92 1.045-1.258.337-.339.945-.842 1.352-1.118.407-.277 1.195-.719 1.751-.983.555-.265 1.361-.587 1.79-.718.43-.13.781-.336.781-.457s-.092-.276-.204-.345c-.12-.075-.162-.384-.103-.75.07-.431.366-.871.96-1.423.472-.44 1.544-1.182 2.383-1.649.84-.467 1.614-.849 1.722-.849s.496-.6.863-1.332 1.106-2.006 1.641-2.83c.844-1.3 1.001-1.689 1.184-2.938.117-.793.508-2.333.87-3.423l.658-1.982 1.31-1.054c.721-.58 1.987-1.531 2.814-2.113.826-.583 1.545-1.128 1.597-1.212s-.146-1.01-.44-2.058c-.294-1.047-.7-2.524-.904-3.282-.203-.757-.748-2.778-1.21-4.491-.463-1.713-.966-3.531-1.118-4.041-.153-.509-.689-2.455-1.192-4.324s-1.007-3.728-1.12-4.132-.322-1.148-.464-1.653-.333-1.167-.425-1.47c-.093-.303-.302-1.088-.465-1.744-.164-.657-.377-1.442-.473-1.745s-.5-1.75-.899-3.214c-.399-1.465-.98-3.614-1.292-4.776-.312-1.161-.697-2.566-.854-3.122-.158-.555-.353-1.258-.434-1.561-.082-.303-.326-1.209-.545-2.014-.366-1.349-.48-1.542-1.477-2.48-.647-.607-1.248-1.385-1.497-1.934-.338-.75-.427-1.328-.485-3.146-.045-1.423.004-2.367.135-2.611.114-.214.508-.458.89-.553.378-.093 1.802-.393 3.166-.667 1.363-.275 2.727-.567 3.03-.651s.98-.206 1.504-.273l.953-.12.77.995c.424.548.924 1.402 1.113 1.899.215.565.343 1.378.343 2.172 0 .698-.136 1.703-.303 2.232-.245.776-.266 1.135-.11 1.853.106.49.481 1.965.832 3.278s1.062 3.999 1.581 5.969c.518 1.97 1.139 4.325 1.379 5.234.241.909.702 2.645 1.025 3.857s.75 2.824.949 3.582c.198.757.652 2.493 1.007 3.856.356 1.364.854 3.265 1.106 4.225.253.959.627 2.364.831 3.122s.562 2.121.795 3.03c.234.91.687 2.644 1.009 3.855.321 1.21.625 2.269.677 2.351.051.083.188.126.305.095s3.601-2.321 7.743-5.089c4.141-2.767 7.591-5.123 7.665-5.234s.136-.636.138-1.166c.002-.919.025-.964.486-.964.266 0 1.237-.358 2.158-.796s2.666-1.403 3.878-2.145c1.213-.743 3.485-2.194 5.051-3.226 1.566-1.031 3.921-2.612 5.235-3.512 1.313-.9 3.792-2.632 5.509-3.848 1.718-1.215 4.156-2.952 5.418-3.858 1.263-.906 3.701-2.672 5.419-3.923 1.717-1.251 5.147-3.772 7.622-5.6 2.474-1.829 5.602-4.147 6.949-5.152 1.347-1.004 3.202-2.405 4.12-3.112 1.514-1.165 1.692-1.368 1.891-2.147.121-.473.405-1.16.631-1.527.226-.366.722-.861 1.102-1.101.379-.24 1.164-.503 1.743-.585l1.053-.15 1.013-1.744c.558-.96 1.22-2.117 1.473-2.572.252-.454.976-1.694 1.607-2.755.632-1.06 2.035-3.457 3.118-5.326l1.969-3.398.156-2.479c.085-1.364.234-2.975.33-3.581.096-.607.232-1.35.303-1.653.07-.303.321-1.145.557-1.87.236-.726.568-1.593.738-1.929.169-.335.474-.791.677-1.013s.593-.453.868-.513c.323-.071.632-.349.877-.79.208-.375.472-1.012.587-1.416s.329-1.437.474-2.295c.146-.859.267-1.662.269-1.785.002-.122-.245-.505-.548-.85-.303-.346-.551-.835-.551-1.088s.211-1.11.469-1.904 1.082-2.684 1.831-4.199c.749-1.516 1.525-3.017 1.723-3.338.199-.32.548-.61.775-.643.236-.034.834-.555 1.389-1.21.678-.799.976-1.308.976-1.67 0-.286.16-.985.355-1.553.196-.568 1.075-2.447 1.955-4.175l1.6-3.142.144-2.42c.079-1.331.168-3.618.198-5.083l.055-2.663-1.161-3.581c-.639-1.97-1.561-4.821-2.05-6.337-.489-1.515-1.033-3.25-1.21-3.856-.176-.607-.416-1.21-.534-1.343-.174-.196-.81-.135-3.502.336-1.809.316-3.547.619-3.862.673-.557.096-.58.073-.783-.794-.114-.491-.288-1.306-.387-1.811-.098-.505-.376-1.851-.618-2.991-.4-1.887-.412-2.086-.141-2.231.164-.087 4.679-1.245 10.033-2.574 5.353-1.328 10.601-2.628 11.662-2.888 1.061-.259 2.08-.551 2.264-.648.214-.111.294-.287.22-.482-.064-.169-.298-.574-.52-.9-.221-.326-.651-.715-.954-.865-.374-.186-1.702-.34-4.132-.481-1.97-.115-4.821-.271-6.337-.347-1.515-.076-3.002-.068-3.304.018-.303.085-.693.155-.868.155s-.444-.244-.598-.542c-.192-.371-.277-1.05-.269-2.158.006-.889.088-2.029.181-2.534.094-.505.225-1.352.291-1.883.097-.784.068-.964-.154-.964-.15 0-.419-.162-.598-.36s-.365-.714-.414-1.148c-.048-.433.044-1.296.206-1.916.161-.621.293-1.22.293-1.332s-.161-.203-.359-.203c-.197 0-.72-.367-1.162-.815-.441-.448-1.074-1.323-1.405-1.945l-.603-1.13.549-.581c.302-.319.633-.745.736-.947s.24-.739.305-1.194c.098-.69.026-1.018-.441-1.991-.497-1.036-.556-1.339-.54-2.755.01-.874.077-1.797.149-2.049.121-.428.198-.456 1.135-.401.697.04 1.343-.065 2.101-.343.709-.26 1.41-.702 1.983-1.252.488-.468 1.047-1.072 1.242-1.342l.355-.49-.664-1.323c-.365-.728-1.065-2.489-1.554-3.915-.49-1.425-.969-2.617-1.065-2.649-.095-.032-.422.38-.725.915-.303.536-.902 1.942-1.332 3.126-.429 1.183-.851 2.108-.936 2.055-.086-.053-.156-.691-.155-1.417.001-.727.121-2.189.267-3.249.146-1.061.344-2.383.441-2.939.096-.556.306-1.63.467-2.388.16-.757.42-1.956.577-2.663s.336-1.567.397-1.911c.09-.506.061-.596-.147-.472-.143.084-.589.419-.993.744s-1.396.929-2.204 1.344c-.808.414-1.633.754-1.833.754-.269 0 .074-.446 1.305-1.698.918-.935 2.128-2.284 2.687-2.998.56-.715 1.564-2.142 2.23-3.173.667-1.03 1.212-1.915 1.212-1.965s.199-.406.442-.791.789-1.38 1.213-2.212.723-1.56.665-1.617c-.058-.058-.482 0-.942.129-.577.161-1.478.2-2.898.125-1.2-.064-2.79-.292-3.805-.546-.96-.24-1.621-.479-1.47-.531.152-.052.771-.057 1.377-.011.606.047 2.004-.05 3.106-.215 1.102-.164 2.732-.543 3.622-.841.891-.298 2.109-.79 2.708-1.092s1.572-.973 2.163-1.491 1.735-1.376 2.543-1.906c.808-.531 2.09-1.298 2.847-1.706.758-.407 2.144-1.045 3.081-1.417.936-.372 2.383-.885 3.214-1.14s2.007-.586 2.613-.735 1.515-.352 2.02-.451c.505-.1 1.58-.298 2.388-.44.808-.143 3.081-.391 5.05-.552 1.97-.161 4.469-.274 5.554-.251s2.013.001 2.061-.048c.049-.048-.189-.351-.529-.672-.34-.32-.831-.946-1.092-1.39-.26-.444-.683-1.453-.941-2.242s-.44-1.519-.406-1.623c.034-.103.411.327.838.955.426.627 1.393 1.668 2.148 2.313.756.645 1.93 1.463 2.61 1.82.68.356 1.715.815 2.299 1.019.585.205 1.862.467 2.838.584.977.117 2.482.411 3.346.654.863.243 2.495.903 3.626 1.466 1.132.564 2.71 1.511 3.508 2.104.797.594 2.125 1.752 2.95 2.575.826.822 2.027 2.169 2.668 2.993.642.824 1.704 2.324 2.359 3.335.655 1.01 1.451 2.318 1.77 2.907.318.589.98 1.994 1.47 3.122.491 1.129 1.145 2.797 1.454 3.708.31.912.744 2.523.964 3.582.302 1.447.425 2.824.496 5.547.073 2.811.025 4.129-.216 5.878-.171 1.239-.38 2.502-.464 2.805s-.293 1.171-.464 1.928c-.172.758-.603 2.287-.958 3.398-.356 1.111-.986 2.847-1.4 3.857s-.982 2.291-1.262 2.847c-.28.555-.511.927-.512.826-.002-.101.121-.882.272-1.737.153-.869.203-1.624.115-1.712-.089-.089-.327.056-.542.329-.211.268-.557.951-.769 1.518s-.619 1.944-.905 3.061c-.285 1.117-.647 2.609-.804 3.317-.157.707-.412 1.988-.568 2.846-.155.859-.305 1.762-.333 2.006-.027.245-.142.475-.254.512-.113.037-.293-.163-.402-.445-.108-.281-.285-.949-.392-1.485-.108-.535-.196-1.548-.196-2.25 0-.811-.074-1.276-.203-1.276-.112 0-.724.414-1.361.921-.636.506-1.764 1.565-2.505 2.354-.742.788-1.772 2.047-2.289 2.798s-1.234 1.944-1.593 2.651c-.36.707-.779 1.575-.933 1.928-.154.354-.457 1.18-.674 1.837-.216.656-.46 1.312-.541 1.458-.088.158-.194-.355-.264-1.286-.064-.852-.048-2.149.037-2.881.085-.733.092-1.433.016-1.557-.101-.163-.272-.1-.624.23-.267.25-.801 1.116-1.188 1.924-.386.808-.849 1.945-1.028 2.527-.213.694-.263 1.121-.145 1.24.099.099.962.229 1.917.29 1.454.092 2.332.302 5.409 1.296 2.021.652 3.749 1.261 3.841 1.353.093.092.158.447.145.788s-.242 1.232-.509 1.981c-.267.748-1.257 2.931-2.2 4.85-.943 1.92-2.282 4.523-2.976 5.786-.694 1.262-1.564 2.837-1.934 3.498l-.673 1.202 1.27 1.316c.698.724 2.048 2.25 2.999 3.393.951 1.142 1.855 2.323 2.011 2.624.155.301.449 1.126.654 1.833s.507 2.03.67 2.939c.164.909.378 2.107.476 2.663s.265 1.713.37 2.571c.105.859.27 2.305.365 3.214s.34 3.761.544 6.337c.333 4.199.421 4.797.856 5.785.267.606.803 1.789 1.191 2.628.388.84.706 1.727.706 1.973s-.475 1.543-1.055 2.882l-1.055 2.435.033 12.856c.019 7.071.12 17.113.227 22.315.133 6.509.279 10.032.467 11.296.151 1.01.362 2.745.469 3.856.107 1.112.273 2.971.369 4.133s.302 3.724.458 5.693c.156 1.97.36 4.698.452 6.061.092 1.364.253 3.719.358 5.235.104 1.515.275 4.036.38 5.601.105 1.566.273 3.963.372 5.327.1 1.363.267 3.967.372 5.785.104 1.818.264 4.463.354 5.877s.25 4.1.355 5.969c.106 1.869.276 4.72.378 6.337.102 1.616.271 4.261.374 5.877.104 1.616.271 4.467.371 6.336.101 1.869.264 4.927.362 6.796.098 1.868.224 3.72.279 4.113.056.394.305.958.554 1.254.258.308.452.772.452 1.084 0 .3-.115.769-.257 1.042-.141.273-.43.654-.642.846-.213.192-.386.434-.386.536 0 .103.115.318.257.477.141.159.424.836.629 1.504.204.668.494 1.949.645 2.847s.364 2.376.474 3.285c.11.91.319 3.513.465 5.786s.289 5.99.318 8.261l.052 4.129 1.054 1.201h-124.756l.705-.964c.388-.531 1.259-1.934 1.935-3.118.677-1.185 2.681-5.056 4.454-8.603 1.772-3.546 3.193-6.536 3.158-6.643-.036-.107-.725.417-1.531 1.164s-2.36 2.184-3.455 3.193c-1.095 1.008-2.151 1.947-2.349 2.085-.197.138-.392.216-.434.174s-.201-1.311-.354-2.819c-.153-1.509-.36-3.529-.46-4.488-.1-.96-.311-3.068-.47-4.684-.158-1.616-.366-3.592-.462-4.391s-.175-1.772-.175-2.163v-.711l2.159-1.025c1.186-.564 2.653-1.254 3.26-1.533.606-.278 1.639-.756 2.295-1.061.657-.305 2.227-1.044 3.49-1.642 1.263-.599 3.077-1.455 4.032-1.903s2.401-1.145 3.214-1.549c1.478-.735 1.478-.735 2.222-2.204.409-.808.89-1.883 1.07-2.388s.397-1.084.484-1.286c.086-.202.416-1.111.733-2.02s.648-1.86.736-2.112c.088-.253.667-2.071 1.285-4.041.619-1.969 1.317-4.201 1.55-4.959.234-.757.571-1.873.749-2.479.177-.606.47-1.598.65-2.204s.506-1.722.724-2.479c.219-.758.554-1.915.745-2.572.191-.656.552-1.896.802-2.755.25-.858 1.003-3.544 1.673-5.969.669-2.424 1.463-5.317 1.763-6.428.299-1.111.736-2.723.97-3.581.234-.859.772-2.872 1.195-4.474s.725-2.957.671-3.012c-.055-.054-.383.099-.73.342-.347.242-1.857 1.317-3.355 2.388-1.499 1.072-4.13 2.9-5.847 4.062-1.718 1.163-4.858 3.29-6.979 4.727-2.122 1.437-5.792 3.896-8.157 5.464-2.365 1.569-8.44 5.595-13.5 8.947-5.059 3.353-9.3 6.157-9.425 6.231-.124.075-.413.04-.642-.077-.23-.117-.782-.596-1.229-1.064-.446-.469-1.239-1.43-1.762-2.138-.522-.707-1.409-1.998-1.971-2.87-.561-.872-1.102-1.635-1.201-1.697-.1-.061-.459-.019-.799.095s-1.031.514-1.537.89c-.58.431-1.171 1.114-1.607 1.853-.656 1.115-.688 1.247-.688 2.801 0 .897-.131 2.138-.291 2.759s-.497 1.542-.748 2.047-.658 1.129-.903 1.387-.446.527-.446.597.442.128.983.128c.54 0 1.237.089 1.549.197.311.109.68.377.819.597.138.22.387.772.552 1.226.165.455.43 1.694.589 2.755s.308 2.57.332 3.353c.042 1.384.027 1.438-.508 1.872-.303.245-1.212.687-2.02.983-.808.295-1.883.626-2.388.735s-1.662.298-2.571.42-1.727.287-1.817.368c-.091.081.079.35.381.604.3.253.642.784.761 1.18.119.397.216 1.059.216 1.473s-.161 1.442-.357 2.284c-.197.843-.491 1.925-.654 2.404-.279.823-.274.984.09 2.837.212 1.081.511 2.503.664 3.159.153.657.395 1.68.537 2.275.142.594.295 1.116.339 1.16s.413-.089.819-.297c.407-.207 1.241-.795 1.855-1.305.613-.51 1.494-1.318 1.957-1.794s1.237-1.444 1.719-2.151 1.084-1.699 1.337-2.204.631-1.414.838-2.02c.208-.606.482-1.586.609-2.178l.232-1.076.665.09c.366.049 1.404.314 2.308.59.904.275 2.593.784 3.755 1.131s2.567.762 3.122.922c.556.161 1.069.345 1.141.409s-.068.666-.312 1.337-.496 1.827-.56 2.569c-.065.742-.03 1.88.077 2.529.108.65.446 1.685.752 2.3.305.614.934 1.55 1.396 2.079l.841.96-1.162-.005c-.64-.003-2.196-.082-3.458-.175-1.263-.093-2.972-.226-3.797-.295l-1.502-.126-.212.787c-.116.433-.412 1.24-.656 1.793-.245.553-.445 1.103-.445 1.222s.497.584 1.105 1.033c1.015.751 1.095.861.994 1.368-.061.303-.153 2.245-.205 4.316-.053 2.131 0 5.032.121 6.684.144 1.945.298 3.002.462 3.166.135.135.42.768.632 1.407.213.639.551 2.006.751 3.04.2 1.033.364 2.082.364 2.331v.453zm1068.439-51.071c-1-.992-1.27-.992-2.17 0-1.62 1.804-3.52 4.24-7.22 4.24h-1.98v-35.905h-13.53v1.804h7.49v41.95c-3.16 5.864-22.47 8.661-42.77 11.367v-38.522h28.78c.36-.992.36-1.173-.63-1.985l-4.51-3.698c-1.26-1.083-1.53-1.083-2.62 0-1.62 1.623-3.88 3.879-9.47 3.879h-24.45v1.804h6.59v42.401l6.76-1.082c20.66-3.338 39.52-6.135 42.32-10.736v35.545l3.15-.632c2.08-.451 2.89-1.714 2.89-5.052v-39.333h16.06c.45-.722.45-.903-.36-1.715zm-280.57 0c-1-.992-1.27-.992-2.17 0-1.62 1.804-3.52 4.24-7.22 4.24h-1.98v-35.905h-13.53v1.804h7.49v80.923l3.15-.632c2.08-.451 2.89-1.714 2.89-5.052v-39.333h16.06c.45-.722.45-.903-.36-1.715zm561.14 0c-1-.992-1.27-.992-2.17 0-1.62 1.804-3.52 4.24-7.22 4.24h-1.98v-35.905h-13.53v1.804h7.48v80.923l3.16-.632c2.08-.451 2.89-1.714 2.89-5.052v-39.333h16.06c.45-.722.45-.903-.36-1.715zm-760.79 19.036c-9.743 0-19.486 5.503-19.486 15.877 0 10.375 9.743 15.878 19.486 15.878 9.744 0 19.487-5.503 19.487-15.878 0-10.374-9.743-15.877-19.487-15.877zm539.13.36c-9.75 0-19.49 5.413-19.49 15.698 0 10.284 9.74 15.697 19.49 15.697 9.74 0 19.48-5.413 19.48-15.697 0-10.285-9.74-15.698-19.48-15.698zm-453.786 0c-9.743 0-19.487 5.413-19.487 15.698 0 10.284 9.744 15.697 19.487 15.697s19.487-5.413 19.487-15.697c0-10.285-9.744-15.698-19.487-15.698zm750.686 3.158c-2.71 0-6.77.992-13.36.992h-34.55v1.805h6.59v23.907c2.07-.091 4.51-.722 6.04-1.895h38.16v-1.804h-4.69c1.17-.812 1.81-2.346 1.81-4.962zm-191.89 18.945c-1.27-1.082-1.54-1.082-2.62 0-1.62 1.624-3.88 3.879-9.47 3.879h-26.07v-18.764h-12.99v1.804h6.58v20.659c2.17-.09 4.87-.721 6.41-1.894h43.3c.45-.993.27-1.263-.63-1.985zm-558.796 7.308c-8.57 0-13.442-6.496-13.442-13.713s4.872-13.713 13.442-13.713 13.442 6.496 13.442 13.713-4.872 13.713-13.442 13.713zm453.786 0c-8.57 0-13.44-6.496-13.44-13.713s4.87-13.713 13.44-13.713 13.44 6.496 13.44 13.713-4.87 13.713-13.44 13.713zm-539.13 0c-8.57 0-13.442-6.586-13.442-13.894 0-7.307 4.872-13.893 13.442-13.893 8.571 0 13.442 6.586 13.442 13.893 0 7.308-4.871 13.894-13.442 13.894zm829.98-23.456v20.208h-29.23v-20.208zm-458.92 4.691c-1.27-.993-1.54-1.083-2.62 0-1.81 1.804-3.97 4.42-9.29 4.42h-19.67v-23.005h24.36c.45-.992.27-1.263-.63-1.984l-4.51-3.699c-1.27-1.083-1.54-1.083-2.62 0-1.62 1.624-3.88 3.879-9.47 3.879h-28.06v-27.967h43.84c.46-.992.28-1.263-.63-1.984l-4.51-3.699c-1.26-1.083-1.53-1.083-2.61 0-1.63 1.624-3.88 3.879-9.48 3.879h-40.41v1.804h7.03v31.666c2.26-.09 5.15-.632 6.77-1.895h14.53v23.005h-22.11c-5.68 0-11-.27-15.88-.812-.45.812-.27.993.27 1.354l7.49 4.691c1.36.812 1.54.902 2.62 0 1.62-1.353 4.15-3.338 9.56-3.338h62.43c.45-.902.18-.992-.63-1.714zm-86.61-.541c-1.26-.993-1.53-1.083-2.62 0-1.8 1.804-3.97 4.42-9.29 4.42h-24.81v-30.132h-12.27v1.714h5.87v28.418h-16.96c-5.69 0-11.01-.271-15.88-.812-.45.902-.27 1.083.27 1.444l7.49 4.691c1.35.812 1.53.902 2.61 0 1.63-1.353 4.15-3.338 9.57-3.338h62.42c.46-.902.19-1.083-.63-1.804zm368.98-33.109c-.99-.993-1.26-.993-2.16 0-1.63 1.804-3.52 4.24-7.22 4.24h-1.99v-32.297h-13.53v1.804h7.49v63.151l3.16-.632c2.07-.451 2.88-1.714 2.88-5.052v-25.17h16.06c.45-.722.45-.902-.36-1.714zm77.67 18.223c-.08-1.534-.26-1.714-1.71-1.804-2.53-.181-6.77.451-11.01-4.15l-6.85-7.308c3.16-5.413 5.95-11.547 8.39-18.494l-12.81-5.052-.63 1.714 6.13 2.526c-6.77 21.472-17.68 36.537-29.5 46.732l.81.992c9.93-6.044 19.04-14.434 26.53-26.523l7.12 7.758c5.51 6.135 9.12 10.195 13.27 15.337.99-.271 1.08-.361.99-1.804zm-581.43-16.419c-8.302 0-16.963 5.503-16.963 15.517s8.661 15.517 16.963 15.517c8.3 0 16.96-5.503 16.96-15.517s-8.66-15.517-16.96-15.517zm0 29.049c-7.039 0-11.009-6.134-11.009-13.532s3.97-13.532 11.009-13.532c7.03 0 11 6.134 11 13.532s-3.97 13.532-11 13.532zm-750.401-3.506c.085-.042.115-.253.066-.469-.048-.215-.644-2.003-1.323-3.973l-1.234-3.581-1.348-1.411c-.741-.776-1.517-1.744-1.724-2.151-.208-.407-.379-.929-.381-1.16-.001-.232-.072-.53-.157-.665-.123-.193-.358-.203-1.145-.05-.545.107-1.817.398-2.827.646-1.01.249-2.535.65-3.388.893-.853.242-1.581.53-1.618.64-.036.11.114.557.335.994.22.437.834 1.456 1.363 2.264s1.427 1.977 1.996 2.599c.569.621 1.595 1.545 2.28 2.053s1.78 1.211 2.434 1.564c.654.352 1.727.821 2.383 1.042.657.221 1.855.501 2.663.622s1.539.186 1.625.143zm1220.871-17.424c0-8.841-8.57-13.713-16.87-13.713-8.21 0-16.78 4.872-16.78 13.713s8.57 13.713 16.78 13.713c8.3 0 16.87-4.872 16.87-13.713zm-550.854-2.887c6.405 5.323 10.374 9.022 15.156 13.442.902-.36.992-.451.722-1.894l-2.075-9.653c-.271-1.534-.451-1.714-1.895-1.534-2.616.451-7.488.541-12.359-3.428l-3.519-2.977c2.526-3.338 4.872-6.947 6.947-11.006l-10.195-4.692h24.719c.361-.902.361-1.082-.721-1.984l-4.511-3.699c-1.353-1.083-1.534-1.083-2.616 0-1.534 1.534-3.428 3.879-8.029 3.879h-16.149c-5.232 0-10.555-.271-15.427-.812-.361 1.263-.361 1.444.451 1.895l6.315 3.608c1.444.812 1.624.812 2.617 0 1.443-1.172 3.428-2.887 8.48-2.887h.631l5.955 3.158c1.263.631 1.443.812.541 2.797-4.691 10.465-15.698 22.644-27.606 31.034l.722.992c10.014-5.052 19.125-11.547 26.523-20.569zm453.784 0c6.4 5.323 10.37 9.022 15.16 13.442.9-.36.99-.451.72-1.894l-2.08-9.653c-.27-1.534-.45-1.714-1.89-1.534-2.62.451-7.49.541-12.36-3.428l-3.52-2.977c2.52-3.338 4.87-6.947 6.95-11.006l-10.2-4.692h24.72c.36-.902.36-1.082-.72-1.984l-4.51-3.699c-1.35-1.083-1.54-1.083-2.62 0-1.53 1.534-3.43 3.879-8.03 3.879h-16.15c-5.23 0-10.55-.271-15.42-.812-.36 1.263-.36 1.444.45 1.895l6.31 3.608c1.45.812 1.63.812 2.62 0 1.44-1.172 3.43-2.887 8.48-2.887h.63l5.96 3.158c1.26.631 1.44.812.54 2.797-4.69 10.465-15.7 22.644-27.61 31.034l.72.992c10.02-5.052 19.13-11.547 26.53-20.569zm-298.07-19.216c1.35.812 1.53.812 2.52 0 1.45-1.172 2.98-2.886 8.39-2.886h33.2l-1.26 22.734c-.54 7.758-1.26 12.901-2.44 15.517 5.24 0 7.49-3.699 8.48-15.156l2.17-26.073c-2.8 0-7.4 1.173-14.07 1.173h-27.7c-5.68 0-11.01-.27-15.88-.812-.36.902-.36 1.083.27 1.534zm622.39 7.218c-.99-.993-1.26-.993-2.16 0-1.63 1.804-3.52 4.24-7.22 4.24h-1.98v-27.335h-13.54v1.804h7.49v31.575c-2.98 6.857-21.74 8.39-43.66 11.097v-16.69h29.77v-1.895h-4.78c1.35-.992 2.07-2.977 2.07-5.683v-11.909c-1.98 0-6.04 1.173-12.81 1.173h-9.47c-5.23 0-10.56-.27-15.43-.812-.36.993-.36 1.263.27 1.624l6.5 3.97c1.44.902 1.53.812 2.61-.091 1.45-1.172 3.43-2.887 8.48-2.887h13.54v14.615h-33.11v1.895h6.04v20.84l9.84-1.534c19.48-2.977 38.07-5.323 40.14-10.104v13.983l3.16-.631c2.07-.451 2.89-1.714 2.89-5.052v-16.149h16.05c.46-.722.46-.902-.36-1.714zm-838.549-21.291h6.586v23.005h-12.089v-20.66h-11.908v1.805h6.044v26.162c-4.511 4.962-17.862 6.766-31.575 8.571v-27.967h-12.45v1.804h6.586v30.583l7.939-1.353c13.261-2.165 25.441-4.511 29.5-8.119v11.637l2.977-.721c2.075-.451 2.887-1.714 2.887-5.684v-13.983h12.089v23.546l2.977-.632c2.075-.451 2.887-1.714 2.887-5.052v-44.746h-12.45zm536.959 0h7.49v21.742l-10.46.27c-3.34.091-7.67-.09-10.74-.451-.27.632-.27.902.45 1.354l5.59 3.608c1 .632 1.18.541 1.9 0 1.53-1.173 3.34-2.616 6.5-2.706l6.76-.181v24.358l3.16-.631c2.07-.451 2.89-1.714 2.89-5.052v-44.115h-13.54zm-453.78 0h7.488v21.742l-10.465.27c-3.338.091-7.668-.09-10.736-.451-.27.632-.27.902.451 1.354l5.594 3.608c.992.632 1.172.541 1.894 0 1.534-1.173 3.338-2.616 6.496-2.706l6.766-.181v24.358l3.157-.631c2.075-.451 2.887-1.714 2.887-5.052v-44.115h-13.532zm500.42 36.176c0-6.405 3.88-11.728 10.83-11.728 7.04 0 10.92 5.323 10.92 11.728s-3.88 11.728-10.92 11.728c-6.95 0-10.83-5.323-10.83-11.728zm-921.881 4.615c.092.052 191.619.052 191.712 0l59.426-1.232-59.426-1.232c-.093-.051-191.62-.051-191.712 0l-59.426 1.232zm-286.956-10.375c.248-.005.739-.15 1.093-.322.467-.228.659-.452.701-.818.032-.277.005-.504-.061-.504-.065 0-.505.305-.976.679-.472.374-.936.746-1.032.827-.096.08.028.143.275.138zm785.827-15.17c-1.36-1.082-1.54-1.082-2.62 0-1.53 1.534-3.43 3.879-8.03 3.879h-21.652c-5.233 0-10.556-.27-15.427-.811-.361 1.263-.361 1.443.451 1.894l6.315 3.609c1.443.812 1.624.812 2.616 0 1.444-1.173 3.428-2.887 8.48-2.887h35.097c.36-.902.36-1.083-.73-1.985zm458.65 1.985c.36-.902.36-1.083-.72-1.985l-4.51-3.699c-1.36-1.082-1.54-1.082-2.62 0-1.53 1.534-3.43 3.88-8.03 3.88h-21.11c-5.23 0-10.55-.271-15.43-.812-.36 1.263-.36 1.443.45 1.894l6.32 3.609c1.44.812 1.62.812 2.62 0 1.44-1.173 3.43-2.887 8.48-2.887zm-486.622-5.774c.992.812 1.173.812 2.346 0 1.443-.992 3.337-2.526 7.666-2.526h7.67v-1.804h-7.76c-5.05 0-10.914-.632-15.876-1.714-.451.902-.451 1.173.27 1.714zm453.692-2.075c.99.812 1.17.812 2.35 0 1.44-.992 3.33-2.526 7.66-2.526h7.49v-1.804h-7.57c-5.06 0-10.92-.632-15.88-1.714-.45.902-.45 1.173.27 1.714zm-514.05-106.046c-13.271 0-25.7-.632-37.075-1.896-.843 2.107-.843 2.528.632 3.581l14.746 9.269c3.159 1.896 3.581 1.896 5.898 0 3.37-2.738 6.951-6.741 19.591-6.741h68.888v62.986l7.79-1.475c5.69-1.264 6.95-4.002 6.95-13.482v-54.98c-6.95 0-18.54 2.738-35.389 2.738zm755.82-21.276c-2.95-2.317-3.58-2.528-6.11 0-4.21 4.213-9.26 10.322-21.69 10.322h-112.49c-13.27 0-25.7-.632-37.08-1.896-1.05 1.896-.63 2.318.64 3.16l17.48 10.954c3.16 1.896 3.58 2.107 6.11 0 3.79-3.16 9.69-7.794 22.33-7.794h42.97v73.518l7.37-1.475c6.11-1.264 7.59-4.423 7.59-13.06v-58.983h87.84c1.05-2.107.42-2.317-1.48-4.002zm-198.01-31.598c-2.32-2.317-2.95-2.317-5.06 0-3.79 4.213-8.21 9.901-16.85 9.901h-4.63v-83.84h-31.6v4.213h17.48v188.956l7.38-1.475c4.84-1.053 6.74-4.002 6.74-11.796v-91.845h37.49c1.06-1.685 1.06-2.107-.84-4.002zm-919.08 44.448c-22.751 0-45.501 12.85-45.501 37.075s22.75 37.075 45.501 37.075c22.75 0 45.501-12.85 45.501-37.075s-22.751-37.075-45.501-37.075zm248.781 54.138c-2.949-2.528-3.581-2.528-6.109 0-3.792 3.792-9.058 9.058-22.118 9.058h-61.511v-24.225h93.741v-4.213h-11.376c3.371-1.685 5.056-5.267 5.056-11.586v-19.591c-4.634 0-14.114 2.739-29.913 2.739h-52.031c-12.218 0-24.647-.632-36.022-1.896-.842 2.317-.842 2.949.632 3.792l15.167 9.268c3.371 2.107 3.581 1.896 6.109-.21 3.371-2.739 8.005-6.741 19.802-6.741h61.089v24.225h-100.692v4.213h13.271v32.862c4.845-.211 12.007-1.896 15.167-4.424h101.745c1.054-2.317.632-2.949-1.474-4.634zm405.089-2.107c-2.95-2.527-3.58-2.527-6.11 0-3.79 3.792-9.06 9.058-22.12 9.058h-61.93v-50.556h-30.34v4.213h15.38v54.98c5.06-.21 11.38-1.685 14.96-4.423h102.16c1.06-2.318.64-2.95-1.47-4.635zm-653.87 17.485c-20.012 0-31.388-15.378-31.388-32.441s11.376-32.441 31.388-32.441 31.387 15.378 31.387 32.441-11.375 32.441-31.387 32.441zm643.33-41.499c4.85-1.053 6.74-4.002 6.74-11.797v-134.607h-31.59v4.213h17.48v143.665zm159.05-76.678c-19.38 0-39.61 12.85-39.61 36.233 0 23.382 20.23 36.232 39.61 36.232s39.6-12.85 39.6-36.232c0-23.383-20.22-36.233-39.6-36.233zm0 67.83c-16.43 0-25.7-14.324-25.7-31.597 0-17.274 9.27-31.598 25.7-31.598s25.7 14.324 25.7 31.598c0 17.273-9.27 31.597-25.7 31.597zm-438.372-55.612c14.957 12.429 24.226 21.065 35.39 31.387 2.107-.842 2.317-1.053 1.685-4.423l-4.845-22.54c-.632-3.581-1.053-4.003-4.423-3.581-6.109 1.053-17.485 1.264-28.86-8.005l-8.215-6.952c5.898-7.794 11.375-16.22 16.22-25.699l-23.804-10.954h57.719c.843-2.107.843-2.528-1.685-4.635l-10.533-8.636c-3.16-2.528-3.581-2.528-6.109 0-3.581 3.581-8.005 9.058-18.748 9.058h-37.707c-12.218 0-24.646-.632-36.021-1.896-.843 2.949-.843 3.37 1.053 4.423l14.746 8.427c3.37 1.895 3.791 1.895 6.108 0 3.371-2.739 8.005-6.741 19.802-6.741h1.474l13.904 7.373c2.949 1.474 3.37 1.895 1.263 6.53-10.953 24.436-36.653 52.874-64.459 72.464l1.685 2.318c23.382-11.797 44.658-26.964 61.932-48.029zm-343.364-77.731h15.377v53.717h-28.227v-48.24h-27.806v4.213h14.114v61.09c-10.533 11.585-41.71 15.798-73.729 20.012v-65.303h-29.07v4.213h15.377v71.412l18.538-3.16c30.966-5.056 59.404-10.533 68.884-18.959v27.174l6.951-1.685c4.845-1.053 6.741-4.002 6.741-13.271v-32.651h28.227v54.98l6.952-1.474c4.845-1.054 6.741-4.003 6.741-11.797v-104.484h-29.07zm396.449 0h17.487v50.767l-24.439.632c-7.794.211-17.905-.21-25.067-1.053-.632 1.475-.632 2.107 1.053 3.16l13.06 8.426c2.318 1.475 2.739 1.264 4.424 0 3.581-2.738 7.794-6.109 15.167-6.32l15.802-.421v57.508l7.37-1.474c4.85-1.053 6.74-4.002 6.74-11.797v-103.641h-31.597zm-206.019 50.978c-5.687 0-18.327-.211-25.489-1.053-.842 1.896-.842 2.317.843 3.37l11.164 6.952c2.318 1.474 2.739 1.474 4.424 0 3.371-2.949 6.53-5.056 13.482-5.056h16.852v27.596h-18.116c-5.688 0-18.327-.211-25.489-1.054-.843 1.896-.843 2.318.843 3.371l11.164 6.951c2.317 1.475 2.739 1.475 4.424 0 3.37-2.949 6.53-5.055 13.482-5.055h13.692v23.382l7.373-1.474c4.845-1.054 6.741-4.003 6.741-11.797v-101.324h-31.598v4.213h17.484v50.978zm-24.436 24.647c0-19.591-19.801-30.335-38.76-30.335-18.748 0-38.549 10.744-38.549 30.335 0 19.59 19.801 30.334 38.549 30.334 18.959 0 38.76-10.744 38.76-30.334zm-63.406 0c0-14.114 8.847-25.7 24.646-25.7s24.857 11.586 24.857 25.7c0 14.113-9.058 25.699-24.857 25.699s-24.646-11.586-24.646-25.699zm472.918-15.589c0-25.278-23.17-39.603-45.5-39.603s-45.5 14.325-45.5 39.603c0 25.279 23.17 39.603 45.5 39.603s45.5-14.324 45.5-39.603zm-76.47 0c0-18.748 10.96-34.968 30.97-34.968s30.96 16.22 30.96 34.968-10.95 34.969-30.96 34.969-30.97-16.221-30.97-34.969zm459.44 29.492c5.26 0 12.85-1.686 16.43-4.424h107.22c1.05-2.317.63-2.949-1.48-4.634l-10.53-8.637c-2.95-2.528-3.58-2.528-6.11 0-3.79 3.792-9.05 9.058-22.12 9.058h-66.98v-30.966h99.85v-4.213h-12.22c3.79-2.107 5.9-6.741 5.9-13.482v-24.436c-5.06 0-19.17 2.739-36.66 2.739h-48.45c-12.22 0-24.64-.632-36.02-1.896-.84 2.317-.84 2.949.63 3.792l15.17 9.268c3.37 2.107 3.58 1.896 6.11-.21 3.37-2.739 8-6.741 19.8-6.741h62.99v30.966h-106.81v4.213h13.28zm-130.61-53.928c-3.16-2.527-3.58-2.527-6.11 0-3.58 3.582-8 9.059-18.75 9.059h-50.55c-12.22 0-24.65-.632-36.03-1.896-.84 2.949-.84 3.37 1.06 4.423l14.74 8.426c3.38 1.896 3.8 1.896 6.11 0 3.37-2.738 8.01-6.74 19.8-6.74h81.95c.84-2.107.84-2.528-1.69-4.635zm-642.702-1.685c.843-2.106.843-2.528-1.685-4.634l-10.533-8.637c-3.16-2.528-3.581-2.528-6.109 0-3.581 3.581-8.005 9.058-18.748 9.058h-49.293c-12.218 0-24.646-.632-36.022-1.896-.842 2.949-.842 3.371 1.054 4.424l14.745 8.426c3.371 1.896 3.792 1.896 6.109 0 3.371-2.738 8.005-6.741 19.802-6.741zm577.402-7.162c2.31 1.896 2.74 1.896 5.48 0 3.37-2.317 7.79-5.898 17.9-5.898h17.91v-4.213h-18.12c-11.8 0-25.49-1.475-37.08-4.003-1.05 2.107-1.05 2.739.64 4.003zm-653.869-9.058c2.317 1.896 2.738 1.896 5.477 0 3.37-2.317 7.794-5.898 17.905-5.898h16.431v-4.213h-16.641c-11.797 0-25.489-1.475-37.075-4.003-1.054 2.107-1.054 2.739.632 4.003z" fill="#212529" fill-rule="nonzero" transform="translate(-216.573 -387.791)"/></svg>